<?xml version="1.0" encoding="utf-8"?>
<!-- Generator: Adobe Illustrator 16.0.0, SVG Export Plug-In . SVG Version: 6.00 Build 0)  -->
<!DOCTYPE svg PUBLIC "-//W3C//DTD SVG 1.1//EN" "http://www.w3.org/Graphics/SVG/1.1/DTD/svg11.dtd">
<svg version="1.1" id="Layer_1" xmlns="http://www.w3.org/2000/svg" xmlns:xlink="http://www.w3.org/1999/xlink" x="0px" y="0px"
	 width="350px" height="350px" viewBox="0 0 350 350" enable-background="new 0 0 350 350" xml:space="preserve">
<circle fill="#373737" cx="175.488" cy="175.378" r="168.5"/>
<g>
	<path fill="#FFFFFF" d="M105.41,189.141l28.873-55.603c2.654-5.055,4.813-9.471,6.472-13.249s2.961-7.085,3.906-9.919
		c0.944-2.833,1.596-5.296,1.953-7.391c0.356-2.093,0.536-3.982,0.536-5.667c0-2.654-0.243-4.889-0.728-6.702
		c-0.485-1.812-1.2-3.267-2.145-4.365c-0.945-1.098-2.119-1.876-3.523-2.336c-1.404-0.46-3.024-0.689-4.863-0.689
		c-4.493,0-7.748,1.851-9.765,5.553c-2.018,3.703-3.025,9.025-3.025,15.969v7.429h-15.317c-0.563-2.859-1.047-5.476-1.455-7.85
		c-0.409-2.374-0.613-4.965-0.613-7.774c0-3.318,0.574-6.625,1.724-9.918c1.148-3.293,2.948-6.267,5.399-8.923
		c2.451-2.654,5.578-4.798,9.382-6.433c3.804-1.634,8.36-2.451,13.671-2.451c5.718,0,10.607,0.665,14.667,1.992
		c4.06,1.328,7.391,3.268,9.995,5.82c2.604,2.554,4.505,5.668,5.706,9.344c1.198,3.676,1.8,7.838,1.8,12.484
		c0,2.655-0.243,5.272-0.728,7.85c-0.486,2.579-1.29,5.336-2.413,8.271c-1.124,2.937-2.579,6.14-4.365,9.612
		c-1.788,3.473-3.982,7.456-6.587,11.948l-25.811,49.016h38.218v15.625H105.41V189.141z"/>
	<path fill="#FFFFFF" d="M180.236,161.034c0-3.83,0.408-7.225,1.226-10.187c0.816-2.961,1.953-5.564,3.408-7.813
		c1.455-2.246,3.179-4.174,5.17-5.782s4.136-2.999,6.434-4.174v-0.613c-1.686-0.919-3.384-2.067-5.094-3.446
		c-1.711-1.379-3.255-3.075-4.634-5.093c-1.378-2.017-2.502-4.391-3.369-7.123c-0.869-2.731-1.303-5.859-1.303-9.382V98.23
		c0-4.237,0.51-7.914,1.532-11.029c1.021-3.114,2.361-5.769,4.021-7.965c1.659-2.194,3.587-3.969,5.783-5.323
		c2.194-1.352,4.454-2.413,6.777-3.178c2.323-0.766,4.646-1.276,6.97-1.532c2.323-0.255,4.454-0.383,6.396-0.383
		c1.991,0,4.136,0.128,6.434,0.383c2.297,0.256,4.62,0.766,6.969,1.532c2.349,0.766,4.607,1.826,6.778,3.178
		c2.17,1.354,4.098,3.115,5.782,5.285c1.686,2.171,3.038,4.813,4.06,7.927c1.021,3.115,1.532,6.792,1.532,11.029v9.191
		c0,3.523-0.435,6.651-1.303,9.382c-0.868,2.732-1.991,5.106-3.369,7.123c-1.379,2.018-2.924,3.715-4.634,5.094
		c-1.712,1.378-3.408,2.527-5.094,3.446v0.612c2.349,1.176,4.506,2.566,6.472,4.175s3.677,3.536,5.132,5.782
		c1.455,2.247,2.591,4.852,3.408,7.812c0.816,2.962,1.226,6.357,1.226,10.187v8.042c0,4.493-0.46,8.425-1.379,11.794
		s-2.183,6.281-3.791,8.73c-1.608,2.451-3.484,4.469-5.629,6.051c-2.145,1.584-4.456,2.848-6.932,3.791
		c-2.478,0.945-5.055,1.609-7.735,1.992s-5.35,0.574-8.004,0.574c-2.655,0-5.311-0.191-7.965-0.574
		c-2.655-0.383-5.222-1.035-7.697-1.953c-2.478-0.92-4.787-2.184-6.932-3.791c-2.145-1.609-3.995-3.625-5.552-6.051
		c-1.559-2.424-2.796-5.322-3.715-8.693c-0.919-3.369-1.379-7.3-1.379-11.794V161.034z M200.379,170.683
		c0,3.32,0.37,6.04,1.111,8.157c0.739,2.119,1.71,3.779,2.91,4.979c1.199,1.201,2.591,2.029,4.174,2.488
		c1.582,0.461,3.217,0.689,4.901,0.689c1.686,0,3.332-0.229,4.94-0.689c1.608-0.459,3.025-1.301,4.251-2.527
		c1.225-1.225,2.221-2.896,2.986-5.016s1.149-4.837,1.149-8.157v-14.398c0-2.859-0.295-5.297-0.881-7.314
		c-0.588-2.017-1.417-3.677-2.489-4.979s-2.374-2.246-3.906-2.834c-1.531-0.586-3.217-0.881-5.055-0.881h-1.915
		c-3.728,0-6.689,1.29-8.884,3.868c-2.196,2.579-3.294,6.651-3.294,12.216V170.683z M214.472,126.032
		c1.48,0,2.872-0.241,4.174-0.728c1.302-0.484,2.438-1.313,3.408-2.488c0.97-1.175,1.735-2.758,2.298-4.749
		c0.562-1.991,0.843-4.492,0.843-7.505V99.762c0-5.411-0.907-9.522-2.72-12.331c-1.813-2.808-4.786-4.212-8.922-4.212
		s-7.085,1.43-8.847,4.289c-1.761,2.86-2.642,6.996-2.642,12.407v10.722c0,2.911,0.241,5.35,0.728,7.314
		c0.484,1.966,1.187,3.549,2.106,4.749c0.919,1.2,2.029,2.056,3.331,2.565c1.302,0.511,2.77,0.766,4.404,0.766H214.472z"/>
</g>
<g>
	<path fill="#FFFFFF" d="M111.705,218.379h10.377l11.004,59.479h-9.123l-1.637-10.656h-10.865l-1.566,10.656h-9.158L111.705,218.379
		z M121.281,260.41l-4.179-29.633h-0.383l-4.214,29.633H121.281z"/>
	<path fill="#FFFFFF" d="M138.832,218.379h9.124c1.346,0,2.738,0.047,4.179,0.141c1.438,0.092,2.843,0.289,4.213,0.592
		c1.37,0.301,2.67,0.748,3.9,1.34s2.304,1.389,3.222,2.385c0.916,1,1.647,2.236,2.193,3.709c0.545,1.475,0.818,3.244,0.818,5.311
		v2.891c0,1.58-0.227,3.029-0.679,4.354c-0.453,1.322-1.051,2.49-1.794,3.5s-1.59,1.846-2.542,2.506
		c-0.952,0.662-1.927,1.109-2.925,1.342v0.277c2.948,0.535,5.171,1.934,6.669,4.197c1.497,2.264,2.246,5.16,2.246,8.688v3.029
		c0,2.16-0.238,4.035-0.714,5.625c-0.477,1.59-1.145,2.947-2.003,4.074c-0.859,1.125-1.88,2.049-3.064,2.768
		c-1.184,0.721-2.484,1.283-3.9,1.689s-2.925,0.686-4.526,0.836s-3.251,0.227-4.945,0.227h-9.472V218.379z M149.418,243.836
		c1.207,0,2.311-0.146,3.309-0.436c0.998-0.291,1.851-0.744,2.56-1.359c0.708-0.613,1.254-1.416,1.637-2.402
		s0.574-2.176,0.574-3.568v-2.438c0-1.395-0.139-2.625-0.418-3.691c-0.278-1.068-0.737-1.975-1.375-2.717
		c-0.639-0.742-1.475-1.307-2.508-1.689s-2.293-0.574-3.778-0.574h-1.741v18.875H149.418z M150.254,271.588
		c1.207,0,2.304-0.156,3.291-0.469c0.986-0.314,1.834-0.801,2.542-1.463s1.254-1.502,1.637-2.525
		c0.383-1.021,0.574-2.229,0.574-3.621v-4.631c0-1.393-0.139-2.629-0.418-3.709c-0.278-1.08-0.737-1.984-1.375-2.717
		c-0.639-0.73-1.469-1.287-2.49-1.672c-1.021-0.383-2.275-0.574-3.761-0.574h-2.577v21.381H150.254z"/>
	<path fill="#FFFFFF" d="M175.291,218.379h9.785c1.114,0,2.339,0.047,3.674,0.141c1.335,0.092,2.67,0.318,4.005,0.678
		c1.335,0.361,2.623,0.9,3.865,1.619c1.242,0.721,2.345,1.707,3.309,2.961c0.963,1.254,1.734,2.826,2.315,4.719
		c0.58,1.893,0.87,4.184,0.87,6.877v1.498c0,4.525-0.649,8.213-1.949,11.055c-1.301,2.846-3.216,4.893-5.746,6.146l9.541,23.785
		h-9.541l-7.905-22.252h-3.378v22.252h-8.845V218.379z M185.494,249.094c1.578,0,2.913-0.174,4.005-0.523
		c1.091-0.348,1.973-0.934,2.646-1.758c0.673-0.824,1.16-1.916,1.463-3.273c0.301-1.357,0.452-3.035,0.452-5.031v-4.701
		c0-1.533-0.139-2.855-0.418-3.971c-0.278-1.113-0.748-2.031-1.41-2.75c-0.661-0.721-1.538-1.254-2.629-1.604
		c-1.092-0.348-2.461-0.521-4.109-0.521h-1.358v24.133H185.494z"/>
	<path fill="#FFFFFF" d="M211.786,218.379h9.02v59.479h-9.02V218.379z"/>
	<path fill="#FFFFFF" d="M230.974,218.379h9.02v52.375h12.292v7.104h-21.312V218.379z"/>
</g>
</svg>
