<?xml version="1.0" encoding="utf-8"?>
<!-- Generator: Adobe Illustrator 16.0.0, SVG Export Plug-In . SVG Version: 6.00 Build 0)  -->
<!DOCTYPE svg PUBLIC "-//W3C//DTD SVG 1.1//EN" "http://www.w3.org/Graphics/SVG/1.1/DTD/svg11.dtd">
<svg version="1.1" id="Layer_1" xmlns="http://www.w3.org/2000/svg" xmlns:xlink="http://www.w3.org/1999/xlink" x="0px" y="0px"
	 width="350px" height="350px" viewBox="0 0 350 350" enable-background="new 0 0 350 350" xml:space="preserve">
<circle fill="#DC557A" cx="175.488" cy="175.378" r="168.5"/>
<g>
	<path fill="#FFFFFF" d="M105.41,189.141l28.873-55.604c2.654-5.055,4.813-9.471,6.472-13.248c1.659-3.779,2.961-7.086,3.906-9.92
		c0.944-2.833,1.596-5.296,1.953-7.391c0.356-2.092,0.536-3.982,0.536-5.667c0-2.654-0.243-4.889-0.728-6.702
		c-0.485-1.811-1.2-3.267-2.145-4.365c-0.945-1.098-2.119-1.876-3.523-2.336c-1.404-0.459-3.024-0.689-4.863-0.689
		c-4.493,0-7.748,1.852-9.765,5.553c-2.018,3.703-3.025,9.025-3.025,15.969v7.43h-15.317c-0.563-2.859-1.047-5.477-1.455-7.851
		c-0.409-2.374-0.613-4.966-0.613-7.774c0-3.318,0.574-6.624,1.724-9.918c1.148-3.293,2.948-6.267,5.399-8.922
		c2.451-2.654,5.578-4.799,9.382-6.434c3.804-1.634,8.36-2.451,13.671-2.451c5.718,0,10.607,0.664,14.667,1.992
		s7.391,3.268,9.995,5.82c2.604,2.554,4.505,5.668,5.706,9.344c1.198,3.676,1.8,7.838,1.8,12.484c0,2.654-0.243,5.271-0.728,7.85
		c-0.486,2.579-1.29,5.336-2.413,8.271c-1.124,2.938-2.579,6.141-4.365,9.611c-1.788,3.473-3.982,7.457-6.587,11.949l-25.811,49.016
		h38.218v15.625H105.41V189.141z"/>
	<path fill="#FFFFFF" d="M244.341,162.564c0,6.025-0.536,11.182-1.608,15.471s-2.502,7.902-4.289,10.838
		c-1.787,2.938-3.817,5.26-6.088,6.969c-2.273,1.713-4.634,3.025-7.085,3.945s-4.863,1.506-7.237,1.762
		c-2.374,0.254-4.558,0.383-6.549,0.383c-5.412,0-10.033-0.678-13.862-2.029c-3.829-1.354-6.944-3.166-9.344-5.438
		c-2.4-2.271-4.162-4.914-5.285-7.928c-1.123-3.012-1.685-6.178-1.685-9.496c0-1.787,0.165-3.754,0.498-5.898
		c0.331-2.145,0.854-4.289,1.57-6.434h15.088v2.834c0,3.982,0.255,7.227,0.766,9.727c0.51,2.502,1.302,4.48,2.374,5.936
		s2.425,2.451,4.06,2.988c1.634,0.535,3.573,0.803,5.82,0.803c4.085,0,7.238-1.492,9.459-4.48c2.221-2.986,3.332-7.773,3.332-14.359
		v-24.049c-1.941,2.145-4.442,3.943-7.506,5.398s-6.663,2.184-10.799,2.184c-2.962,0-5.975-0.471-9.038-1.416
		s-5.847-2.631-8.348-5.057c-2.503-2.424-4.545-5.717-6.127-9.879c-1.584-4.16-2.375-9.484-2.375-15.969v-12.714
		c0-6.943,0.728-12.829,2.183-17.653c1.456-4.825,3.535-8.731,6.242-11.719c2.706-2.986,5.961-5.143,9.766-6.471
		c3.803-1.328,8.08-1.992,12.828-1.992c5.361,0,10.097,0.678,14.207,2.029c4.109,1.354,7.583,3.563,10.416,6.625
		c2.834,3.064,4.979,7.098,6.434,12.102s2.183,11.156,2.183,18.457V162.564z M224.275,99.227c0-2.961-0.257-5.477-0.767-7.545
		c-0.511-2.067-1.29-3.727-2.336-4.978c-1.047-1.251-2.387-2.157-4.021-2.72c-1.635-0.561-3.575-0.842-5.821-0.842
		c-3.932,0-6.816,1.404-8.654,4.213s-2.757,7.021-2.757,12.637v20.066c0,3.166,0.28,5.82,0.843,7.965
		c0.561,2.145,1.352,3.867,2.374,5.17c1.021,1.303,2.246,2.234,3.676,2.795c1.429,0.563,3.037,0.844,4.825,0.844
		c1.379,0,2.692-0.205,3.944-0.613c1.251-0.408,2.413-0.945,3.484-1.609c1.072-0.662,2.042-1.428,2.911-2.297
		c0.867-0.867,1.633-1.734,2.298-2.604V99.227z"/>
</g>
<g>
	<path fill="#FFFFFF" d="M111.705,218.379h10.377l11.004,59.479h-9.123l-1.637-10.656h-10.865l-1.566,10.656h-9.158L111.705,218.379
		z M121.281,260.41l-4.179-29.633h-0.383l-4.214,29.633H121.281z"/>
	<path fill="#FFFFFF" d="M138.832,218.379h9.124c1.346,0,2.738,0.047,4.179,0.141c1.438,0.092,2.843,0.289,4.213,0.592
		c1.37,0.301,2.67,0.748,3.9,1.34s2.304,1.389,3.222,2.385c0.916,1,1.647,2.236,2.193,3.709c0.545,1.475,0.818,3.244,0.818,5.311
		v2.891c0,1.58-0.227,3.029-0.679,4.354c-0.453,1.322-1.051,2.49-1.794,3.5s-1.59,1.846-2.542,2.506
		c-0.952,0.662-1.927,1.109-2.925,1.342v0.277c2.948,0.535,5.171,1.934,6.669,4.197c1.497,2.264,2.246,5.16,2.246,8.688v3.029
		c0,2.16-0.238,4.035-0.714,5.625c-0.477,1.59-1.145,2.947-2.003,4.074c-0.859,1.125-1.88,2.049-3.064,2.768
		c-1.184,0.721-2.484,1.283-3.9,1.689s-2.925,0.686-4.526,0.836s-3.251,0.227-4.945,0.227h-9.472V218.379z M149.418,243.836
		c1.207,0,2.311-0.146,3.309-0.436c0.998-0.291,1.851-0.744,2.56-1.359c0.708-0.613,1.254-1.416,1.637-2.402
		s0.574-2.176,0.574-3.568v-2.438c0-1.395-0.139-2.625-0.418-3.691c-0.278-1.068-0.737-1.975-1.375-2.717
		c-0.639-0.742-1.475-1.307-2.508-1.689s-2.293-0.574-3.778-0.574h-1.741v18.875H149.418z M150.254,271.588
		c1.207,0,2.304-0.156,3.291-0.469c0.986-0.314,1.834-0.801,2.542-1.463s1.254-1.502,1.637-2.525
		c0.383-1.021,0.574-2.229,0.574-3.621v-4.631c0-1.393-0.139-2.629-0.418-3.709c-0.278-1.08-0.737-1.984-1.375-2.717
		c-0.639-0.73-1.469-1.287-2.49-1.672c-1.021-0.383-2.275-0.574-3.761-0.574h-2.577v21.381H150.254z"/>
	<path fill="#FFFFFF" d="M175.291,218.379h9.785c1.114,0,2.339,0.047,3.674,0.141c1.335,0.092,2.67,0.318,4.005,0.678
		c1.335,0.361,2.623,0.9,3.865,1.619c1.242,0.721,2.345,1.707,3.309,2.961c0.963,1.254,1.734,2.826,2.315,4.719
		c0.58,1.893,0.87,4.184,0.87,6.877v1.498c0,4.525-0.649,8.213-1.949,11.055c-1.301,2.846-3.216,4.893-5.746,6.146l9.541,23.785
		h-9.541l-7.905-22.252h-3.378v22.252h-8.845V218.379z M185.494,249.094c1.578,0,2.913-0.174,4.005-0.523
		c1.091-0.348,1.973-0.934,2.646-1.758c0.673-0.824,1.16-1.916,1.463-3.273c0.301-1.357,0.452-3.035,0.452-5.031v-4.701
		c0-1.533-0.139-2.855-0.418-3.971c-0.278-1.113-0.748-2.031-1.41-2.75c-0.661-0.721-1.538-1.254-2.629-1.604
		c-1.092-0.348-2.461-0.521-4.109-0.521h-1.358v24.133H185.494z"/>
	<path fill="#FFFFFF" d="M211.786,218.379h9.02v59.479h-9.02V218.379z"/>
	<path fill="#FFFFFF" d="M230.974,218.379h9.02v52.375h12.292v7.104h-21.312V218.379z"/>
</g>
</svg>
