<?xml version="1.0" encoding="utf-8"?>
<!-- Generator: Adobe Illustrator 16.0.0, SVG Export Plug-In . SVG Version: 6.00 Build 0)  -->
<!DOCTYPE svg PUBLIC "-//W3C//DTD SVG 1.1//EN" "http://www.w3.org/Graphics/SVG/1.1/DTD/svg11.dtd">
<svg version="1.1" id="Layer_1" xmlns="http://www.w3.org/2000/svg" xmlns:xlink="http://www.w3.org/1999/xlink" x="0px" y="0px"
	 width="40px" height="40px" viewBox="0 0 40 40" enable-background="new 0 0 40 40" xml:space="preserve">
<path fill="#FFFFFF" d="M19.783,1.449c-10.246,0-18.551,8.306-18.551,18.552s8.305,18.551,18.551,18.551
	c10.245,0,18.551-8.305,18.551-18.551S30.028,1.449,19.783,1.449z M29,28.249C29,28.9,28.9,29,28.25,29H11.752
	C11.101,29,11,28.9,11,28.249V27.07c1-2.945,3.108-3.07,3.108-3.07h1.179C16.589,24,18,22.48,18,21.179v-0.782
	c-1-0.562-1.016-1.205-1.24-1.901c-0.047-0.141-0.16-0.304-0.291-0.394c-0.512-0.42-0.696-1.208-0.378-1.787
	c0.054-0.117,0.152-0.212,0.136-0.354c0.002-0.705-0.018-1.409-0.007-2.112c0.027-0.655,0.186-1.319,0.559-1.867
	c0.421-0.63,1.1-1.054,1.824-1.238c0.837-0.212,1.719-0.221,2.563-0.059c0.669,0.127,1.316,0.424,1.789,0.922
	c0.585,0.618,0.821,1.485,0.84,2.318c0.004,0.69,0.001,1.383,0.001,2.074c-0.005,0.102,0.078,0.173,0.124,0.256
	c0.338,0.542,0.25,1.303-0.201,1.754c-0.084,0.09-0.389,0.154-0.413,0.285C23.074,19.069,23,19.802,22,20.422v0.757
	C22,22.48,23.412,24,24.714,24h1.179c0,0,2.107,0.125,3.107,3.07V28.249z"/>
</svg>
