<?xml version="1.0" encoding="utf-8"?>
<!-- Generator: Adobe Illustrator 16.0.0, SVG Export Plug-In . SVG Version: 6.00 Build 0)  -->
<!DOCTYPE svg PUBLIC "-//W3C//DTD SVG 1.1//EN" "http://www.w3.org/Graphics/SVG/1.1/DTD/svg11.dtd">
<svg version="1.1" id="Layer_1" xmlns="http://www.w3.org/2000/svg" xmlns:xlink="http://www.w3.org/1999/xlink" x="0px" y="0px"
	 width="40px" height="40px" viewBox="0 0 40 40" enable-background="new 0 0 40 40" xml:space="preserve">
<g>
	<g>
		<path fill="#FFFFFF" d="M20.283,1.731c-10.246,0-18.551,8.306-18.551,18.552s8.305,18.551,18.551,18.551
			c10.245,0,18.551-8.305,18.551-18.551S30.528,1.731,20.283,1.731z M27.834,30.781H24.46l-1.47-4.147v2.587l-1.877,1.561H17.77
			v-1.294l-1.383,1.294h-3.478V10.826l1.723-1.373h3.516v1.302l1.317-1.302h4.669c4.192,0.5,4.727,4.187,4.727,4.187
			c0.506,3.3-0.252,5.278-0.252,5.278c-0.434,1.559-1.968,2.584-1.968,2.584l3.081,7.719L27.834,30.781z"/>
		<rect x="13.217" y="11.075" fill="#FFFFFF" width="2.945" height="19.424"/>
		<path fill="#FFFFFF" d="M26.63,20.724c0.424-0.929,0.636-2.131,0.636-3.61v-0.49c0-0.879-0.095-1.627-0.285-2.246
			c-0.188-0.617-0.441-1.131-0.756-1.539c-0.314-0.412-0.673-0.733-1.079-0.968c-0.405-0.234-0.826-0.411-1.264-0.53
			c-0.436-0.115-0.871-0.19-1.307-0.221c-0.436-0.029-0.837-0.044-1.2-0.044h-3.197v19.424h2.891v-7.267h1.104l2.581,7.267h3.117
			l-3.117-7.769C25.579,22.321,26.203,21.653,26.63,20.724z M24.31,17.646c0,0.652-0.051,1.199-0.147,1.645
			c-0.099,0.443-0.259,0.8-0.479,1.068c-0.22,0.27-0.51,0.461-0.864,0.574c-0.357,0.113-0.793,0.172-1.309,0.172h-0.442v-7.883
			h0.442c0.538,0,0.987,0.059,1.341,0.172c0.356,0.113,0.643,0.287,0.86,0.523c0.216,0.235,0.369,0.533,0.46,0.896
			c0.091,0.365,0.138,0.797,0.138,1.297V17.646L24.31,17.646z"/>
	</g>
</g>
</svg>
