<?xml version="1.0" encoding="utf-8"?>
<!-- Generator: Adobe Illustrator 16.0.0, SVG Export Plug-In . SVG Version: 6.00 Build 0)  -->
<!DOCTYPE svg PUBLIC "-//W3C//DTD SVG 1.1//EN" "http://www.w3.org/Graphics/SVG/1.1/DTD/svg11.dtd">
<svg version="1.1" id="Layer_1" xmlns="http://www.w3.org/2000/svg" xmlns:xlink="http://www.w3.org/1999/xlink" x="0px" y="0px"
	 width="40px" height="40px" viewBox="0 0 40 40" enable-background="new 0 0 40 40" xml:space="preserve">
<path fill="#FFFFFF" d="M20,1.449c-10.246,0-18.551,8.306-18.551,18.552S9.754,38.552,20,38.552
	c10.245,0,18.551-8.305,18.551-18.551S30.245,1.449,20,1.449z M18.043,29.835c-0.642,0.635-1.957,0.946-2.524,0.277
	c-0.569-0.67-0.126-1.264,0.081-1.817c-0.535,0.172-1.348,0.504-1.844-0.119c-0.493-0.624-0.094-1.148,0.044-1.659
	c-0.499,0.119-1.21,0.526-1.72-0.146c-0.51-0.672-0.094-1.148,0.043-1.659c-0.499,0.118-1.151,0.527-1.721-0.147
	c-0.57-0.674-0.161-1.823,0.478-2.46c0.642-0.636,1.618-0.662,2.183-0.061c0.36,0.386,0.436,0.932,0.298,1.443
	c0.499-0.117,1.019-0.018,1.379,0.363c0.361,0.386,0.438,0.931,0.298,1.444c0.5-0.119,1.021-0.02,1.379,0.363
	c0.399,0.424,0.469,1.046,0.261,1.6c0.535-0.174,1.114-0.078,1.503,0.337C18.745,28.194,18.684,29.199,18.043,29.835z M28.41,24.709
	c-0.443,0.46-1.166,0.461-1.607,0c-0.007-0.008-0.013-0.017-0.02-0.025c-1.868-1.938-1.876-1.93-1.993-1.809
	s-0.199,0.15,1.721,2.143c0.02,0.021,0.031,0.048,0.038,0.079c0.362,0.463,0.34,0.79-0.074,1.22C26.045,26.762,25.354,28,24.91,26
	c-0.004,0-0.007,0-0.01,0c-1.517-1-2.226-2.029-2.359-1.89c-0.117,0.12,0.056,0.597,1.581,2.177c0.027,0.027,0.048,0.142,0.07,0.169
	c0.025,0.021,0.051,0.085,0.074,0.109c0.443,0.46,0.442,1.23,0,1.689c-0.442,0.458-1.165,0.47-1.607,0.011
	c-0.042-0.044-0.075-0.088-0.108-0.135c-0.013-0.007-0.023-0.011-0.031-0.019c-1.67-1.734-1.889-2.071-2.036-1.917
	c-0.148,0.153-0.07,0.267,1.423,1.815c0,0.003-0.002,0.007-0.003,0.01c0.015,0.015,0.032,0.026,0.047,0.04
	c0.443,0.46,0.441,1.21,0,1.667c-0.443,0.46-1.164,0.46-1.607,0c-0.223-0.229-0.573-0.67-0.597-0.695
	C19.745,29.03,19.699,29,19.698,29H20c0,0,0,0.057,0,0.055c0-0.835-0.213-1.703-0.812-2.342c-0.306-0.325-0.752-0.56-1.171-0.688
	c-0.105-0.465-0.356-0.896-0.687-1.246c-0.296-0.314-0.672-0.543-1.076-0.672c-0.108-0.426-0.326-0.815-0.627-1.137
	c-0.294-0.312-0.659-0.539-1.063-0.668c-0.108-0.425-0.32-0.816-0.62-1.139c-0.999-1.065-2.817-1.054-3.915,0.031
	c-0.336,0.335-0.528,0.746-0.68,1.187C8.689,22.104,8,21.881,8,21.881v-9.295l2.532,0.932c1.336,0.561,2.252-0.063,2.252-0.063
	s3.294-2.249,4.877-2.249c1.585,0,2.301,0.95,2.301,0.95s-2.376,1.311-3.406,2.05c-0.732,0.475-1.226,1.311-1.226,2.272
	c0,1.481,1.158,2.681,2.586,2.681c0.135,0,0.78-0.122,1.521-0.524c0.674-0.328,1.567-0.758,2.261-1.074
	c0.988-0.45,1.739,0.325,1.739,0.325c2.492,2.59,0.319,0.336,4.933,5.124c0.012,0.011,0.026,0.02,0.04,0.031
	C28.853,23.502,28.851,24.251,28.41,24.709z M34,21.615c0,0-1.79,0.342-2.134,0.388c-0.345,0.045-1.482,0.404-2.267-0.375
	c-1.207-1.202-5.533-5.632-5.533-5.632s-0.754-0.754-1.945-0.102c-1.085,0.596-2.704,1.465-3.385,1.81
	c-0.241,0.175-0.539,0.28-0.855,0.28c-0.821,0-1.488-0.692-1.488-1.545c0-0.668,0.408-1.235,0.98-1.449
	c1.55-0.973,4.777-2.854,6.125-3.596c0.821-0.453,1.414-0.492,2.543,0.492c1.391,1.215,2.626,2.32,2.626,2.32
	s0.693,0.276,1.159,0.208C30.806,14.27,34,13.491,34,13.491V21.615z"/>
</svg>
