<?xml version="1.0" encoding="utf-8"?>
<!-- Generator: Adobe Illustrator 16.0.0, SVG Export Plug-In . SVG Version: 6.00 Build 0)  -->
<!DOCTYPE svg PUBLIC "-//W3C//DTD SVG 1.1//EN" "http://www.w3.org/Graphics/SVG/1.1/DTD/svg11.dtd">
<svg version="1.1" id="Layer_1" xmlns="http://www.w3.org/2000/svg" xmlns:xlink="http://www.w3.org/1999/xlink" x="0px" y="0px"
	 width="40px" height="40px" viewBox="0 0 40 40" enable-background="new 0 0 40 40" xml:space="preserve">
<g>
	<path fill="#FFFFFF" d="M12,28h16V16H12V28z M26,20.756C26,20.891,25.891,21,25.756,21h-2.513C23.109,21,23,20.891,23,20.756
		v-2.512C23,18.109,23.109,18,23.244,18h2.513C25.891,18,26,18.109,26,18.244V20.756z M26,25.756C26,25.891,25.891,26,25.756,26
		h-2.513C23.109,26,23,25.891,23,25.756v-2.512C23,23.109,23.109,23,23.244,23h2.513C25.891,23,26,23.109,26,23.244V25.756z
		 M21,20.756C21,20.891,20.89,21,20.755,21h-2.51C18.11,21,18,20.891,18,20.756v-2.512C18,18.109,18.11,18,18.245,18h2.51
		C20.89,18,21,18.109,21,18.244V20.756z M21,25.756C21,25.891,20.89,26,20.755,26h-2.51C18.11,26,18,25.891,18,25.756v-2.512
		C18,23.109,18.11,23,18.245,23h2.51C20.89,23,21,23.109,21,23.244V25.756z M17,20.756C17,20.891,16.891,21,16.756,21h-2.512
		C14.109,21,14,20.891,14,20.756v-2.512C14,18.109,14.109,18,14.244,18h2.512C16.891,18,17,18.109,17,18.244V20.756z M17,25.756
		C17,25.891,16.891,26,16.756,26h-2.512C14.109,26,14,25.891,14,25.756v-2.512C14,23.109,14.109,23,14.244,23h2.512
		C16.891,23,17,23.109,17,23.244V25.756z"/>
	<path fill="#FFFFFF" d="M19.783,1.449c-10.246,0-18.551,8.306-18.551,18.552s8.305,18.551,18.551,18.551
		c10.245,0,18.551-8.305,18.551-18.551S30.028,1.449,19.783,1.449z M30,29.551C30,30.395,29.822,31,28.981,31H11.547
		C10.706,31,10,30.395,10,29.551V13.214C10,12.373,10.706,11,11.547,11H13v-0.454C13,9.705,13.907,9,14.748,9h0.061
		C15.651,9,16,9.705,16,10.546V11h8v-0.454C24,9.705,24.88,9,25.722,9h0.061C26.624,9,27,9.705,27,10.546V11h1.981
		C29.822,11,30,12.373,30,13.214V29.551z"/>
</g>
</svg>
