<?xml version="1.0" encoding="utf-8"?>
<!-- Generator: Adobe Illustrator 16.0.0, SVG Export Plug-In . SVG Version: 6.00 Build 0)  -->
<!DOCTYPE svg PUBLIC "-//W3C//DTD SVG 1.1//EN" "http://www.w3.org/Graphics/SVG/1.1/DTD/svg11.dtd">
<svg version="1.1" id="Capa_1" xmlns="http://www.w3.org/2000/svg" xmlns:xlink="http://www.w3.org/1999/xlink" x="0px" y="0px"
	 width="905.807px" height="345.96px" viewBox="0 0 905.807 345.96" enable-background="new 0 0 905.807 345.96"
	 xml:space="preserve">
<g>
	<g>
		<path fill="#DC557A" d="M355.108,174.868c0,88.362-71.63,159.989-159.993,159.989c-88.356,0-159.985-71.627-159.985-159.989
			c0-88.361,71.628-159.989,159.985-159.989C283.479,14.879,355.108,86.507,355.108,174.868z"/>
		<g>
			<path fill="#FFFFFF" d="M131.845,96.563v172.101h30.001l11.925-11.156v11.156h28.849l16.183-13.462v-22.31l12.665,35.771h29.122
				l16.266-13.462l-26.566-66.577c0,0,13.233-8.814,16.949-22.279c0,0,6.544-17.051,2.184-45.515c0,0-4.616-31.799-40.772-36.115
				H188.39l-11.368,11.239V84.716h-30.314L131.845,96.563z"/>
			<g>
				
					<text transform="matrix(1 0 0 1 120.1875 266.2256)" fill="#DC557A" font-family="'FjallaOne-Regular'" font-size="200.8748" letter-spacing="-11">IR</text>
			</g>
		</g>
	</g>
	<g>
		<path fill="#F4AC42" d="M559.484,232.931c-10.025,7.857-16.474,20.07-16.474,33.801c0,23.712,19.224,42.938,42.94,42.938
			c10.028,0,19.247-3.447,26.557-9.213C585.829,283.955,568.333,259.978,559.484,232.931z"/>
		<path fill="#529ECE" d="M863.813,149.275c-0.034-0.039-0.064-0.084-0.093-0.123c-0.097-0.13-0.192-0.257-0.278-0.389
			c0.102,0.153,0.199,0.309,0.313,0.459c-0.007,0.027-0.016,0.058-0.023,0.09c-8.12-9.025-19.884-14.707-32.981-14.707
			c-24.119,0-43.722,19.248-44.328,43.22c-0.021,0.01-0.041,0.023-0.062,0.034v64.08c0,7.251-5.88,13.131-13.133,13.131h-1.095
			c-7.257,0-13.131-5.88-13.131-13.131V115.791c0-7.247,5.874-13.127,13.131-13.127h1.095c7.253,0,13.133,5.88,13.133,13.127v6.827
			c12.211-9.637,27.622-15.403,44.39-15.403c9.34,0,17.031,1.305,25.065,4.5c-7.001-18.806-19.438-44.218-39.442-58.079
			c-4.858-3.366-9.291-7.057-14.196-9.898c-4.904-2.837-9.972-5.229-15.192-7.193c-70.922-22.83-168.879,4.657-208.973,66.005
			c-25.306,40.148-32.098,88.885-18.527,130.381c7.296-5.72,16.478-9.142,26.467-9.142c23.712,0,42.938,19.226,42.938,42.942
			c0,13.687-6.411,25.864-16.382,33.726c5.631,3.486,11.667,6.643,18.118,9.423c54.5,23.054,122.885,9.199,170.247-27.117
			c4.851-3.321,9.466-6.819,13.847-10.494c26.292-22.058,44.346-50.689,51.145-81.116c1.134-5.067,1.956-10.19,2.448-15.346
			c0.166-7.95,0.008-15.624-1.021-23.266C865.948,151.662,864.767,150.558,863.813,149.275z M749.114,243.828
			c0-0.003-0.009-0.013-0.009-0.015c-0.001,0.023-0.003,0.047-0.007,0.072c0.004,0.002,0.004,0.008,0.006,0.012
			c-0.115,0.765-0.288,1.505-0.528,2.225c-1.75,5.195-6.652,8.948-12.442,8.948h-1.097c-7.253,0-13.133-5.88-13.133-13.131v-6.631
			c-12.21,9.639-27.629,15.396-44.396,15.396c-39.625,0-71.749-32.118-71.749-71.746c0-39.622,32.124-71.744,71.749-71.744
			c16.764,0,32.175,5.767,44.387,15.4v-6.824c0-7.247,5.883-13.127,13.135-13.127h0.008h1.086c7.253,0,13.135,5.88,13.135,13.127
			l0.008,126.148C749.266,242.585,749.204,243.211,749.114,243.828z"/>
		<circle fill="#539FCE" cx="677.508" cy="178.96" r="44.355"/>
		<path fill="#FFFFFF" d="M628.89,266.731c0-23.717-19.227-42.942-42.938-42.942c-9.989,0-19.171,3.422-26.467,9.142
			c8.849,27.047,26.345,51.024,53.023,67.526C622.479,292.596,628.89,280.418,628.89,266.731z"/>
		<path fill="#FFFFFF" d="M736.123,102.664h-1.086h-0.008c-7.252,0-13.135,5.88-13.135,13.127v6.824
			c-12.212-9.634-27.623-15.4-44.387-15.4c-39.625,0-71.749,32.122-71.749,71.744c0,39.628,32.124,71.746,71.749,71.746
			c16.768,0,32.187-5.758,44.396-15.396v6.631c0,7.251,5.88,13.131,13.133,13.131h1.097c5.79,0,10.692-3.753,12.442-8.948
			c0.24-0.72,0.413-1.46,0.528-2.225c-0.002-0.004-0.002-0.01-0.006-0.012c0.004-0.025,0.006-0.049,0.007-0.072
			c0,0.002,0.009,0.012,0.009,0.015c0.09-0.617,0.151-1.243,0.151-1.889l-0.008-126.148
			C749.258,108.544,743.376,102.664,736.123,102.664z M677.508,223.315c-24.496,0-44.355-19.859-44.355-44.356
			c0-24.494,19.859-44.354,44.355-44.354c24.499,0,44.354,19.859,44.354,44.354C721.861,203.456,702.007,223.315,677.508,223.315z"
			/>
		<path fill="#FFFFFF" d="M786.36,122.618v-6.827c0-7.247-5.88-13.127-13.133-13.127h-1.095c-7.257,0-13.131,5.88-13.131,13.127
			v126.148c0,7.251,5.874,13.131,13.131,13.131h1.095c7.253,0,13.133-5.88,13.133-13.131v-64.08c0.021-0.011,0.04-0.024,0.062-0.034
			c0.606-23.972,20.209-43.22,44.328-43.22c13.098,0,24.861,5.682,32.981,14.707c0.008-0.032,0.017-0.063,0.023-0.09
			c-0.114-0.15-0.212-0.306-0.313-0.459c0.086,0.132,0.182,0.259,0.278,0.389c0.028,0.039,0.059,0.084,0.093,0.123
			c0.954,1.282,2.136,2.387,3.479,3.266c-0.784-5.792-2.066-11.569-4.102-17.438c-0.476-1.357-2.731-10.921-7.375-23.389
			c-8.034-3.195-15.726-4.5-25.065-4.5C813.982,107.215,798.571,112.981,786.36,122.618z"/>
	</g>
</g>
<text transform="matrix(1 0 0 1 398.2617 227.2061)" fill="none" stroke="#2C2C2C" stroke-width="1.4173" stroke-miterlimit="10" font-family="'Algerian'" font-size="182.2865">+</text>
</svg>
