<?xml version="1.0" encoding="utf-8"?>
<!-- Generator: Adobe Illustrator 16.0.0, SVG Export Plug-In . SVG Version: 6.00 Build 0)  -->
<!DOCTYPE svg PUBLIC "-//W3C//DTD SVG 1.1//EN" "http://www.w3.org/Graphics/SVG/1.1/DTD/svg11.dtd">
<svg version="1.1" id="Capa_1" xmlns="http://www.w3.org/2000/svg" xmlns:xlink="http://www.w3.org/1999/xlink" x="0px" y="0px"
	 width="2064.315px" height="811.666px" viewBox="0 0 2064.315 811.666" enable-background="new 0 0 2064.315 811.666"
	 xml:space="preserve">
<rect x="-598.049" y="-670.359" fill="#C65474" width="57.185" height="70.117"/>
<circle cx="-1351.791" cy="-880.356" r="51.993"/>
<text transform="matrix(1 0 0 1 -1290.459 -883.7642)" font-family="'FjallaOne-Regular'" font-size="43.5026">INTERNET</text>
<text transform="matrix(1 0 0 1 -1290.459 -838.7061)" font-family="'FjallaOne-Regular'" font-size="46.7228">RECORRE</text>
<g>
	<path fill="#FFFFFF" d="M-1372.354-905.803v55.928h9.75l3.875-3.625v3.625h9.375l5.26-4.375v-7.25l4.115,11.625h9.464l5.286-4.375
		l-8.633-21.635c0,0,4.3-2.865,5.508-7.24c0,0,2.126-5.541,0.709-14.791c0,0-1.5-10.334-13.25-11.736h-13.083l-3.694,3.652v-3.652
		h-9.852L-1372.354-905.803z"/>
	<g>
		
			<text transform="matrix(1 0 0 1 -1376.1426 -850.6665)" font-family="'FjallaOne-Regular'" font-size="65.2793" letter-spacing="-3">IR</text>
	</g>
</g>
<g>
	<g>
		<path fill="#FFFFFF" d="M944.643,120.783h41.188v271.581h-41.188V120.783z"/>
		<path fill="#FFFFFF" d="M1032.266,120.783h33.379l65.837,181.751h0.95c-0.307-4.24-0.746-8.963-1.271-14.153
			c-0.526-5.19-1.009-11.111-1.434-17.734c-0.424-6.624-0.789-14.124-1.111-22.502c-0.321-8.378-0.467-17.808-0.467-28.298v-99.063
			h36.888v271.581h-33.716l-65.516-176.971h-1.271c0.321,4.767,0.745,9.942,1.271,15.499c0.541,5.57,1.009,12.12,1.433,19.635
			c0.425,7.53,0.805,16.303,1.111,26.318c0.321,10.015,0.482,21.916,0.482,35.703v79.815h-36.565V120.783z"/>
		<path fill="#FFFFFF" d="M1236.59,153.22h-43.73v-32.437h128.487v32.437h-43.569v239.145h-41.188V153.22z"/>
		<path fill="#FFFFFF" d="M1349.17,120.783h100.649v32.437h-59.478v81.255h45.953v32.429h-45.953v93.032h61.071v32.429H1349.17
			V120.783z"/>
		<path fill="#FFFFFF" d="M1481.152,120.783h44.68c5.089,0,10.674,0.212,16.771,0.636c6.097,0.424,12.193,1.455,18.289,3.101
			c6.098,1.645,11.976,4.108,17.648,7.39c5.673,3.29,10.702,7.794,15.104,13.518c4.4,5.724,7.924,12.909,10.57,21.544
			c2.646,8.641,3.977,19.108,3.977,31.405v6.843c0,20.673-2.968,37.501-8.904,50.485c-5.936,12.983-14.68,22.34-26.229,28.057
			l43.57,108.604h-43.57l-36.099-101.601h-15.425v101.601h-40.382V120.783z M1527.733,261.025c7.208,0,13.305-0.789,18.29-2.383
			c4.986-1.594,9.007-4.27,12.077-8.026c3.085-3.773,5.308-8.744,6.683-14.95c1.374-6.199,2.075-13.853,2.075-22.977v-21.463
			c0-7.004-0.643-13.042-1.915-18.13c-1.271-5.088-3.422-9.276-6.434-12.56c-3.026-3.289-7.032-5.731-12.018-7.317
			c-4.972-1.587-11.229-2.384-18.759-2.384h-6.199v110.189H1527.733z"/>
		<path fill="#FFFFFF" d="M1647.784,120.783h33.394l65.838,181.751h0.95c-0.321-4.24-0.745-8.963-1.271-14.153
			c-0.542-5.19-1.009-11.111-1.433-17.734c-0.425-6.624-0.805-14.124-1.111-22.502c-0.322-8.378-0.482-17.808-0.482-28.298v-99.063
			h36.888v271.581h-33.7l-65.517-176.971h-1.272c0.322,4.767,0.732,9.942,1.272,15.499c0.526,5.57,1.009,12.12,1.433,19.635
			c0.424,7.53,0.79,16.303,1.111,26.318c0.322,10.015,0.468,21.916,0.468,35.703v79.815h-36.566V120.783z"/>
		<path fill="#FFFFFF" d="M1826.991,120.783h100.649v32.437h-59.463v81.255h45.953v32.429h-45.953v93.032h61.057v32.429h-102.243
			V120.783z"/>
		<path fill="#FFFFFF" d="M1984.092,153.22h-43.717v-32.437h128.473v32.437h-43.569v239.145h-41.187V153.22z"/>
	</g>
	<g>
		<path fill="#FFFFFF" d="M946.368,437.98h47.985c5.469,0,11.463,0.22,18.013,0.673c6.55,0.468,13.101,1.579,19.65,3.333
			c6.535,1.77,12.852,4.416,18.948,7.939c6.097,3.538,11.507,8.378,16.229,14.519c4.724,6.155,8.511,13.86,11.347,23.145
			c2.851,9.284,4.284,20.527,4.284,33.73v7.339c0,22.209-3.202,40.28-9.577,54.229c-6.375,13.949-15.762,23.993-28.175,30.134
			l46.802,116.645h-46.802l-38.759-109.13h-16.565v109.13h-43.38V437.98z M996.4,588.604c7.749,0,14.284-0.848,19.636-2.559
			c5.351-1.71,9.679-4.576,12.983-8.626c3.305-4.035,5.688-9.386,7.179-16.054c1.477-6.667,2.223-14.884,2.223-24.68v-23.057
			c0-7.516-0.688-14.007-2.063-19.461c-1.359-5.468-3.669-9.971-6.915-13.495c-3.246-3.523-7.544-6.155-12.896-7.851
			c-5.351-1.711-12.063-2.573-20.147-2.573h-6.652v118.354H996.4z"/>
		<path fill="#FFFFFF" d="M1125.341,437.98h108.105v34.842h-63.878v87.256h49.36v34.842h-49.36v99.918h65.589v34.827h-109.816
			V437.98z"/>
		<path fill="#FFFFFF" d="M1329.943,732.238c-4.561,0-9.488-0.38-14.781-1.111c-5.293-0.745-10.585-2.311-15.878-4.708
			c-5.293-2.383-10.366-5.775-15.206-10.161c-4.839-4.371-9.108-10.162-12.808-17.325c-3.698-7.179-6.652-16.024-8.874-26.566
			c-2.223-10.527-3.334-23.071-3.334-37.648V531.393c0-14.68,1.141-27.238,3.422-37.663c2.266-10.41,5.292-19.183,9.05-26.288
			c3.757-7.12,8.085-12.778,12.983-17.004c4.883-4.211,9.956-7.428,15.19-9.649c5.234-2.208,10.439-3.67,15.63-4.343
			c5.176-0.688,9.985-1.023,14.431-1.023c11.608,0,21.317,1.608,29.124,4.854c7.793,3.245,14.051,7.69,18.773,13.334
			c4.723,5.629,8.085,12.208,10.088,19.724c1.989,7.515,2.983,15.483,2.983,23.904c0,6.258-0.322,12.033-0.937,17.341
			c-0.629,5.292-1.564,11.126-2.821,17.501h-35.865v-14.855c0-16.053-1.769-28.071-5.292-36.039
			c-3.538-7.969-8.714-11.96-15.542-11.96c-4.094,0-7.69,0.804-10.761,2.397s-5.629,4.299-7.691,8.114
			c-2.046,3.816-3.611,8.846-4.692,15.104c-1.082,6.272-1.624,14.065-1.624,23.408v133.21c0,9.108,0.425,16.667,1.287,22.705
			c0.849,6.039,2.252,10.879,4.182,14.519c1.931,3.641,4.474,6.229,7.603,7.764c3.129,1.55,6.916,2.311,11.36,2.311
			c2.836,0,5.571-0.658,8.188-1.96c2.617-1.315,4.928-3.362,6.916-6.154c2.004-2.778,3.597-6.316,4.781-10.586
			c1.199-4.27,1.798-9.299,1.798-15.118v-28.51h40.471v26.975c0,23.466-5.352,40.763-16.054,51.919
			C1365.34,726.478,1349.974,732.121,1329.943,732.238z"/>
		<path fill="#FFFFFF" d="M1491.488,732.238c-4.664,0-9.723-0.38-15.19-1.111c-5.468-0.745-10.878-2.311-16.229-4.708
			c-5.352-2.383-10.497-5.775-15.454-10.161c-4.956-4.371-9.343-10.162-13.145-17.325c-3.815-7.179-6.871-16.024-9.138-26.566
			c-2.28-10.527-3.421-23.071-3.421-37.648V531.393c0-14.68,1.17-27.238,3.509-37.663c2.324-10.41,5.424-19.183,9.299-26.288
			c3.875-7.12,8.29-12.778,13.232-17.004c4.956-4.211,10.132-7.428,15.541-9.649c5.41-2.208,10.79-3.67,16.142-4.343
			c5.351-0.688,10.308-1.023,14.854-1.023c4.328,0,9.138,0.308,14.431,0.937c5.308,0.628,10.601,1.987,15.894,4.093
			c5.292,2.106,10.439,5.235,15.453,9.402c5.001,4.151,9.445,9.78,13.32,16.901c3.875,7.12,6.974,15.936,9.313,26.464
			c2.324,10.541,3.494,23.261,3.494,38.174v103.325c0,14.46-1.198,26.902-3.582,37.313c-2.397,10.425-5.526,19.24-9.401,26.478
			c-3.875,7.223-8.334,13.027-13.407,17.413c-5.059,4.387-10.234,7.808-15.542,10.249c-5.293,2.442-10.557,4.064-15.79,4.869
			C1500.437,731.828,1495.699,732.238,1491.488,732.238z M1491.488,698.933c4.328,0,8.115-0.746,11.36-2.223
			c3.246-1.477,5.922-4.035,8.027-7.69c2.104-3.641,3.698-8.451,4.781-14.432c1.081-5.965,1.622-13.509,1.622-22.618V519.272
			c0-9.343-0.541-17.136-1.622-23.408c-1.083-6.258-2.677-11.287-4.781-15.103c-2.105-3.816-4.781-6.521-8.027-8.115
			c-3.245-1.594-7.032-2.397-11.36-2.397c-4.43,0-8.305,0.804-11.608,2.397s-6.039,4.299-8.202,8.115
			c-2.164,3.815-3.787,8.845-4.854,15.103c-1.096,6.272-1.623,14.065-1.623,23.408V651.97c0,9.109,0.527,16.653,1.623,22.618
			c1.067,5.98,2.69,10.791,4.854,14.432c2.163,3.655,4.898,6.214,8.202,7.69S1487.059,698.933,1491.488,698.933z"/>
		<path fill="#FFFFFF" d="M1605.238,437.98h47.984c5.469,0,11.463,0.22,18.014,0.673c6.55,0.468,13.1,1.579,19.65,3.333
			c6.535,1.77,12.852,4.416,18.948,7.939c6.097,3.538,11.507,8.378,16.229,14.519c4.722,6.155,8.509,13.86,11.346,23.145
			c2.851,9.284,4.283,20.527,4.283,33.73v7.339c0,22.209-3.201,40.28-9.576,54.229c-6.375,13.949-15.762,23.993-28.175,30.134
			l46.801,116.645h-46.801l-38.759-109.13h-16.566v109.13h-43.379V437.98z M1655.271,588.604c7.749,0,14.284-0.848,19.636-2.559
			c5.352-1.71,9.679-4.576,12.983-8.626c3.304-4.035,5.687-9.386,7.179-16.054c1.477-6.667,2.222-14.884,2.222-24.68v-23.057
			c0-7.516-0.687-14.007-2.062-19.461c-1.359-5.468-3.67-9.971-6.915-13.495c-3.246-3.523-7.544-6.155-12.896-7.851
			c-5.352-1.711-12.063-2.573-20.147-2.573h-6.653v118.354H1655.271z"/>
		<path fill="#FFFFFF" d="M1784.211,437.98h47.985c5.468,0,11.478,0.22,18.027,0.673c6.535,0.468,13.086,1.579,19.636,3.333
			c6.55,1.77,12.866,4.416,18.963,7.939c6.082,3.538,11.492,8.378,16.215,14.519c4.723,6.155,8.51,13.86,11.359,23.145
			c2.852,9.284,4.27,20.527,4.27,33.73v7.339c0,22.209-3.187,40.28-9.562,54.229c-6.375,13.949-15.775,23.993-28.175,30.134
			l46.787,116.645h-46.787l-38.773-109.13h-16.566v109.13h-43.379V437.98z M1834.258,588.604c7.734,0,14.285-0.848,19.636-2.559
			c5.352-1.71,9.679-4.576,12.983-8.626c3.289-4.035,5.688-9.386,7.164-16.054c1.477-6.667,2.223-14.884,2.223-24.68v-23.057
			c0-7.516-0.688-14.007-2.047-19.461c-1.375-5.468-3.67-9.971-6.916-13.495c-3.246-3.523-7.545-6.155-12.896-7.851
			c-5.351-1.711-12.077-2.573-20.147-2.573h-6.668v118.354H1834.258z"/>
		<path fill="#FFFFFF" d="M1963.198,437.98h108.105v34.842h-63.878v87.256h49.359v34.842h-49.359v99.918H2073v34.827h-109.802
			V437.98z"/>
	</g>
	<g>
		<path fill="#FFFFFF" d="M393.893,15.996c-214.938,0-389.189,174.251-389.189,389.22c0,214.954,174.251,389.204,389.189,389.204
			c214.97,0,389.22-174.25,389.22-389.204C783.112,190.247,608.862,15.996,393.893,15.996z M552.383,625.463h-70.838l-30.806-87.022
			v54.271l-39.374,32.751h-70.18v-27.136l-29.008,27.136h-72.986V206.79l36.156-28.817h73.748v27.341l27.647-27.341h97.944
			c87.959,10.497,99.188,87.849,99.188,87.849c10.6,69.244-5.308,110.723-5.308,110.723c-9.05,32.765-41.23,54.214-41.23,54.214
			l64.624,161.954L552.383,625.463z"/>
		<rect x="245.653" y="211.995" fill="#FFFFFF" width="61.802" height="407.546"/>
		<path fill="#FFFFFF" d="M527.059,414.456c8.904-19.489,13.35-44.739,13.35-75.765v-10.264c0-18.452-1.989-34.154-5.965-47.123
			c-3.978-12.954-9.256-23.744-15.864-32.327c-6.594-8.597-14.152-15.352-22.662-20.278c-8.509-4.927-17.34-8.627-26.493-11.098
			c-9.138-2.464-18.291-4.021-27.428-4.648c-9.153-0.637-17.545-0.958-25.178-0.958h-67.051v407.546h60.604V467.076h23.145
			l54.17,152.465h65.369l-65.369-162.978C505.025,447.981,518.141,433.945,527.059,414.456z M478.372,349.905
			c0,13.685-1.038,25.177-3.1,34.476c-2.062,9.313-5.41,16.785-10.016,22.429c-4.619,5.658-10.658,9.679-18.144,12.062
			c-7.472,2.384-16.624,3.582-27.43,3.582h-9.313v-165.36h9.313c11.288,0,20.675,1.185,28.146,3.582
			c7.485,2.383,13.48,6.038,18.028,10.966c4.532,4.941,7.748,11.214,9.649,18.86c1.915,7.632,2.865,16.697,2.865,27.194V349.905z"/>
	</g>
</g>
<g>
	<g>
		<path fill="#FFFFFF" d="M-272.258-728.446h3.729v24.593h-3.729V-728.446z"/>
		<path fill="#FFFFFF" d="M-264.324-728.446h3.023l5.961,16.458h0.086c-0.027-0.384-0.067-0.811-0.115-1.281
			c-0.047-0.47-0.091-1.006-0.129-1.605c-0.039-0.6-0.072-1.278-0.101-2.038c-0.029-0.759-0.043-1.612-0.043-2.563v-8.97h3.341
			v24.593h-3.054l-5.933-16.026h-0.115c0.029,0.432,0.068,0.9,0.115,1.404c0.049,0.504,0.092,1.097,0.13,1.778
			c0.039,0.682,0.073,1.476,0.101,2.383c0.029,0.907,0.044,1.984,0.044,3.233v7.228h-3.312V-728.446z"/>
		<path fill="#FFFFFF" d="M-245.821-725.509h-3.96v-2.937h11.635v2.937h-3.945v21.656h-3.729V-725.509z"/>
		<path fill="#FFFFFF" d="M-235.627-728.446h9.113v2.937h-5.386v7.358h4.161v2.937h-4.161v8.424h5.53v2.938h-9.258V-728.446z"/>
		<path fill="#FFFFFF" d="M-223.676-728.446h4.046c0.461,0,0.967,0.019,1.519,0.058s1.104,0.132,1.656,0.281
			s1.084,0.372,1.598,0.669s0.97,0.706,1.368,1.224c0.398,0.519,0.718,1.169,0.957,1.951c0.239,0.783,0.36,1.73,0.36,2.844v0.619
			c0,1.872-0.27,3.396-0.807,4.573c-0.537,1.176-1.329,2.022-2.375,2.54l3.945,9.835h-3.945l-3.269-9.2h-1.397v9.2h-3.656V-728.446z
			 M-219.458-715.746c0.653,0,1.205-0.072,1.656-0.216c0.452-0.145,0.815-0.387,1.094-0.728c0.279-0.341,0.48-0.792,0.604-1.354
			c0.125-0.561,0.188-1.255,0.188-2.081v-1.944c0-0.633-0.059-1.181-0.173-1.641c-0.115-0.461-0.311-0.84-0.583-1.138
			c-0.274-0.297-0.637-0.519-1.089-0.663c-0.449-0.144-1.017-0.216-1.698-0.216h-0.562v9.979H-219.458z"/>
		<path fill="#FFFFFF" d="M-208.587-728.446h3.024l5.961,16.458h0.086c-0.028-0.384-0.067-0.811-0.115-1.281
			c-0.049-0.47-0.091-1.006-0.129-1.605c-0.039-0.6-0.073-1.278-0.102-2.038c-0.028-0.759-0.043-1.612-0.043-2.563v-8.97h3.34
			v24.593h-3.052l-5.933-16.026h-0.115c0.029,0.432,0.066,0.9,0.115,1.404c0.048,0.504,0.092,1.097,0.13,1.778
			c0.038,0.682,0.071,1.476,0.101,2.383s0.043,1.984,0.043,3.233v7.228h-3.312V-728.446z"/>
		<path fill="#FFFFFF" d="M-192.359-728.446h9.114v2.937h-5.385v7.358h4.161v2.937h-4.161v8.424h5.529v2.938h-9.259V-728.446z"/>
		<path fill="#FFFFFF" d="M-178.134-725.509h-3.958v-2.937h11.633v2.937h-3.945v21.656h-3.729V-725.509z"/>
	</g>
	<g>
		<path fill="#FFFFFF" d="M-272.368-699.723h4.345c0.496,0,1.038,0.021,1.632,0.062c0.593,0.042,1.187,0.143,1.779,0.302
			c0.592,0.16,1.163,0.399,1.716,0.719c0.552,0.32,1.042,0.759,1.47,1.314c0.428,0.558,0.771,1.256,1.027,2.096
			c0.258,0.842,0.388,1.859,0.388,3.055v0.665c0,2.011-0.29,3.647-0.867,4.91c-0.577,1.264-1.428,2.173-2.551,2.729l4.237,10.563
			h-4.237l-3.51-9.882h-1.501v9.882h-3.928V-699.723z M-267.838-686.083c0.702,0,1.294-0.076,1.778-0.231s0.876-0.414,1.176-0.781
			c0.299-0.365,0.515-0.85,0.649-1.453c0.135-0.604,0.202-1.349,0.202-2.235v-2.088c0-0.681-0.063-1.269-0.187-1.763
			s-0.333-0.902-0.627-1.221c-0.294-0.32-0.683-0.559-1.168-0.712c-0.484-0.155-1.092-0.233-1.824-0.233h-0.603v10.718H-267.838z"/>
		<path fill="#FFFFFF" d="M-256.162-699.723h9.79v3.155h-5.784v7.901h4.469v3.155h-4.469v9.048h5.938v3.153h-9.944V-699.723z"/>
		<path fill="#FFFFFF" d="M-237.635-673.076c-0.413,0-0.859-0.034-1.338-0.101c-0.479-0.067-0.959-0.209-1.438-0.427
			c-0.479-0.216-0.939-0.522-1.377-0.92c-0.438-0.396-0.825-0.92-1.16-1.568c-0.335-0.65-0.603-1.451-0.804-2.406
			c-0.201-0.953-0.302-2.089-0.302-3.409v-9.356c0-1.329,0.104-2.466,0.31-3.41c0.205-0.943,0.479-1.737,0.819-2.381
			c0.341-0.645,0.732-1.157,1.176-1.54c0.442-0.381,0.901-0.672,1.376-0.873c0.474-0.2,0.945-0.333,1.415-0.394
			c0.469-0.063,0.904-0.093,1.307-0.093c1.052,0,1.931,0.146,2.638,0.439c0.705,0.294,1.272,0.696,1.7,1.208
			c0.427,0.51,0.731,1.105,0.913,1.786c0.18,0.681,0.271,1.401,0.271,2.165c0,0.566-0.029,1.089-0.085,1.569
			c-0.058,0.479-0.142,1.008-0.256,1.585h-3.247v-1.345c0-1.454-0.16-2.542-0.479-3.264c-0.32-0.722-0.789-1.083-1.407-1.083
			c-0.371,0-0.697,0.072-0.975,0.217c-0.278,0.145-0.51,0.389-0.696,0.734c-0.186,0.346-0.327,0.802-0.425,1.368
			c-0.099,0.568-0.147,1.273-0.147,2.12v12.063c0,0.824,0.038,1.509,0.116,2.056c0.077,0.547,0.204,0.985,0.379,1.314
			c0.175,0.33,0.405,0.564,0.688,0.703c0.283,0.141,0.626,0.209,1.028,0.209c0.257,0,0.505-0.06,0.742-0.177
			c0.236-0.119,0.445-0.305,0.626-0.558c0.182-0.252,0.325-0.572,0.433-0.959c0.108-0.387,0.163-0.842,0.163-1.369v-2.581h3.665
			v2.442c0,2.125-0.485,3.691-1.454,4.701C-234.429-673.598-235.82-673.087-237.635-673.076z"/>
		<path fill="#FFFFFF" d="M-223.006-673.076c-0.423,0-0.881-0.034-1.376-0.101c-0.495-0.067-0.985-0.209-1.47-0.427
			c-0.484-0.216-0.95-0.522-1.399-0.92c-0.448-0.396-0.846-0.92-1.19-1.568c-0.345-0.65-0.622-1.451-0.827-2.406
			c-0.206-0.953-0.31-2.089-0.31-3.409v-9.356c0-1.329,0.105-2.466,0.317-3.41c0.211-0.943,0.491-1.737,0.843-2.381
			c0.351-0.645,0.75-1.157,1.197-1.54c0.449-0.381,0.918-0.672,1.408-0.873c0.489-0.2,0.977-0.333,1.461-0.394
			c0.485-0.063,0.934-0.093,1.346-0.093c0.392,0,0.827,0.028,1.307,0.085c0.48,0.057,0.96,0.18,1.439,0.37
			c0.479,0.191,0.945,0.475,1.399,0.852c0.452,0.376,0.854,0.886,1.206,1.53c0.351,0.646,0.631,1.443,0.843,2.396
			c0.211,0.955,0.316,2.106,0.316,3.457v9.356c0,1.31-0.108,2.437-0.324,3.379c-0.217,0.944-0.5,1.742-0.852,2.397
			c-0.351,0.654-0.754,1.18-1.214,1.577c-0.458,0.397-0.927,0.707-1.407,0.928c-0.479,0.222-0.956,0.368-1.43,0.441
			C-222.195-673.113-222.625-673.076-223.006-673.076z M-223.006-676.092c0.392,0,0.734-0.068,1.028-0.202
			c0.294-0.133,0.536-0.365,0.728-0.696c0.19-0.329,0.334-0.765,0.433-1.307c0.098-0.54,0.146-1.223,0.146-2.048v-12.017
			c0-0.846-0.049-1.551-0.146-2.119c-0.099-0.566-0.242-1.021-0.433-1.367c-0.191-0.346-0.434-0.591-0.728-0.735
			s-0.637-0.218-1.028-0.218c-0.401,0-0.752,0.073-1.052,0.218c-0.299,0.145-0.547,0.39-0.742,0.735
			c-0.196,0.346-0.343,0.801-0.439,1.367c-0.1,0.568-0.147,1.273-0.147,2.119v12.017c0,0.825,0.048,1.508,0.147,2.048
			c0.097,0.542,0.243,0.978,0.439,1.307c0.195,0.331,0.443,0.563,0.742,0.696C-223.758-676.16-223.407-676.092-223.006-676.092z"/>
		<path fill="#FFFFFF" d="M-212.706-699.723h4.346c0.495,0,1.038,0.021,1.631,0.062c0.593,0.042,1.187,0.143,1.779,0.302
			c0.592,0.16,1.164,0.399,1.716,0.719c0.553,0.32,1.042,0.759,1.47,1.314c0.428,0.558,0.771,1.256,1.027,2.096
			c0.258,0.842,0.388,1.859,0.388,3.055v0.665c0,2.011-0.29,3.647-0.867,4.91c-0.577,1.264-1.427,2.173-2.551,2.729l4.238,10.563
			h-4.238l-3.51-9.882h-1.5v9.882h-3.929V-699.723z M-208.175-686.083c0.701,0,1.293-0.076,1.777-0.231
			c0.485-0.155,0.877-0.414,1.176-0.781c0.3-0.365,0.516-0.85,0.65-1.453c0.134-0.604,0.201-1.349,0.201-2.235v-2.088
			c0-0.681-0.063-1.269-0.187-1.763c-0.123-0.494-0.332-0.902-0.627-1.221c-0.293-0.32-0.683-0.559-1.167-0.712
			c-0.484-0.155-1.093-0.233-1.824-0.233h-0.603v10.718H-208.175z"/>
		<path fill="#FFFFFF" d="M-196.499-699.723h4.345c0.495,0,1.039,0.021,1.633,0.062c0.592,0.042,1.185,0.143,1.778,0.302
			c0.593,0.16,1.165,0.399,1.717,0.719c0.551,0.32,1.04,0.759,1.468,1.314c0.428,0.558,0.771,1.256,1.029,2.096
			c0.258,0.842,0.387,1.859,0.387,3.055v0.665c0,2.011-0.289,3.647-0.866,4.91c-0.577,1.264-1.429,2.173-2.551,2.729l4.236,10.563
			h-4.236l-3.512-9.882h-1.5v9.882h-3.928V-699.723z M-191.968-686.083c0.7,0,1.294-0.076,1.778-0.231s0.877-0.414,1.176-0.781
			c0.298-0.365,0.515-0.85,0.648-1.453c0.134-0.604,0.201-1.349,0.201-2.235v-2.088c0-0.681-0.062-1.269-0.185-1.763
			c-0.125-0.494-0.333-0.902-0.627-1.221c-0.294-0.32-0.683-0.559-1.167-0.712c-0.485-0.155-1.094-0.233-1.825-0.233h-0.604v10.718
			H-191.968z"/>
		<path fill="#FFFFFF" d="M-180.291-699.723h9.789v3.155h-5.784v7.901h4.47v3.155h-4.47v9.048h5.938v3.153h-9.942V-699.723z"/>
	</g>
	<g>
		<path fill="#FFFFFF" d="M-221.903-843.333c-28.713,0-51.99,23.277-51.99,51.993c0,28.715,23.277,51.992,51.99,51.992
			c28.717,0,51.994-23.277,51.994-51.992C-169.909-820.056-193.187-843.333-221.903-843.333z M-200.731-761.918h-9.463
			l-4.115-11.625v7.25l-5.26,4.375h-9.375v-3.625l-3.875,3.625h-9.75v-55.928l4.83-3.85h9.852v3.652l3.694-3.652h13.083
			c11.75,1.402,13.25,11.736,13.25,11.736c1.416,9.25-0.709,14.791-0.709,14.791c-1.209,4.376-5.508,7.241-5.508,7.241l8.633,21.635
			L-200.731-761.918z"/>
		<rect x="-241.705" y="-817.151" fill="#FFFFFF" width="8.256" height="54.442"/>
		<path fill="#FFFFFF" d="M-204.114-790.105c1.189-2.603,1.784-5.976,1.784-10.12v-1.371c0-2.465-0.266-4.563-0.797-6.295
			c-0.531-1.731-1.237-3.172-2.119-4.318c-0.882-1.148-1.892-2.051-3.028-2.71c-1.137-0.658-2.316-1.152-3.538-1.482
			c-1.222-0.329-2.443-0.537-3.665-0.622c-1.223-0.084-2.343-0.127-3.363-0.127h-8.957v54.442h8.097v-20.367h3.092l7.235,20.367
			h8.733l-8.733-21.771C-207.058-785.627-205.305-787.502-204.114-790.105z M-210.617-798.728c0,1.828-0.139,3.363-0.414,4.605
			c-0.276,1.244-0.723,2.242-1.339,2.996c-0.616,0.756-1.424,1.292-2.423,1.61c-0.999,0.319-2.221,0.479-3.665,0.479h-1.243v-22.089
			h1.243c1.509,0,2.762,0.158,3.761,0.478s1.801,0.808,2.407,1.466c0.605,0.659,1.035,1.498,1.29,2.519
			c0.256,1.021,0.383,2.231,0.383,3.634V-798.728z"/>
	</g>
	<g>
		<path fill="#FFFFFF" d="M-222.51-621.708c-28.713,0-51.99,23.277-51.99,51.993c0,28.715,23.277,51.992,51.99,51.992
			c28.717,0,51.994-23.277,51.994-51.992C-170.516-598.431-193.793-621.708-222.51-621.708z M-201.338-540.293h-9.463l-4.115-11.625
			v7.25l-5.26,4.375h-9.375v-3.625l-3.875,3.625h-9.75v-55.928l4.83-3.85h9.852v3.652l3.694-3.652h13.083
			c11.75,1.402,13.25,11.735,13.25,11.735c1.416,9.25-0.709,14.791-0.709,14.791c-1.209,4.376-5.508,7.241-5.508,7.241l8.633,21.635
			L-201.338-540.293z"/>
		<rect x="-242.312" y="-595.525" fill="#FFFFFF" width="8.256" height="54.441"/>
		<path fill="#FFFFFF" d="M-204.721-568.48c1.189-2.603,1.784-5.976,1.784-10.12v-1.371c0-2.465-0.266-4.563-0.797-6.295
			c-0.531-1.731-1.237-3.172-2.119-4.318c-0.882-1.148-1.892-2.051-3.028-2.71c-1.137-0.658-2.316-1.152-3.538-1.482
			c-1.222-0.328-2.443-0.536-3.665-0.621c-1.223-0.084-2.343-0.127-3.363-0.127h-8.957v54.441h8.097v-20.367h3.092l7.235,20.367
			h8.733l-8.733-21.771C-207.664-564.002-205.911-565.877-204.721-568.48z M-211.224-577.103c0,1.828-0.139,3.363-0.414,4.605
			c-0.276,1.244-0.723,2.242-1.339,2.996c-0.616,0.756-1.424,1.292-2.423,1.61c-0.999,0.319-2.221,0.479-3.665,0.479h-1.243v-22.089
			h1.243c1.509,0,2.762,0.158,3.761,0.478s1.801,0.808,2.407,1.466c0.605,0.659,1.035,1.498,1.29,2.519
			c0.256,1.021,0.383,2.231,0.383,3.634V-577.103z"/>
	</g>
</g>
<circle fill="#F9EDC3" cx="485.653" cy="-876.433" r="48.548"/>
<circle fill="#529188" cx="361.006" cy="-875.412" r="48.548"/>
<circle fill="#A4403C" cx="367" cy="-751.786" r="48.548"/>
<circle fill="#1E2E4F" cx="482.906" cy="-751.786" r="48.548"/>
<circle fill="#582B62" cx="485.653" cy="-583.86" r="48.548"/>
<circle fill="#D49E2B" cx="361.006" cy="-582.839" r="48.548"/>
<circle fill="#8D191E" cx="367" cy="-459.213" r="48.548"/>
<circle fill="#1C5872" cx="482.906" cy="-459.213" r="48.548"/>
<circle fill="#A3B5CF" cx="884.761" cy="-584.189" r="48.548"/>
<circle fill="#313654" cx="760.115" cy="-583.168" r="48.548"/>
<circle fill="#D0766A" cx="766.108" cy="-459.542" r="48.548"/>
<circle fill="#625D5E" cx="882.014" cy="-459.542" r="48.548"/>
<circle fill="#53181B" cx="881.764" cy="-874.105" r="48.548"/>
<circle fill="#B57B1B" cx="765.118" cy="-873.085" r="48.548"/>
<circle fill="#625D5E" cx="763.111" cy="-749.458" r="48.548"/>
<circle fill="#A6CBBF" cx="879.017" cy="-749.458" r="48.548"/>
<line fill="none" stroke="#000000" stroke-miterlimit="10" x1="609.994" y1="-937.736" x2="609.994" y2="-388.65"/>
<line fill="none" stroke="#000000" stroke-miterlimit="10" x1="248.518" y1="-670.637" x2="971.481" y2="-670.637"/>
<circle fill="#F9EDC3" cx="1347.542" cy="-876.433" r="48.548"/>
<circle fill="#75B8DC" cx="1222.896" cy="-875.412" r="48.548"/>
<circle fill="#E7C845" cx="1223.889" cy="-751.786" r="48.548"/>
<circle fill="#1E2E4F" cx="1344.795" cy="-751.786" r="48.548"/>
<circle fill="#774F82" cx="1347.542" cy="-583.86" r="48.548"/>
<circle fill="#D49E2B" cx="1222.896" cy="-582.839" r="48.548"/>
<circle fill="#8D191E" cx="1223.889" cy="-459.213" r="48.548"/>
<circle fill="#625D5E" cx="1344.795" cy="-459.213" r="48.548"/>
<circle fill="#A3B5CF" cx="1746.651" cy="-584.189" r="48.548"/>
<circle fill="#B57B1B" cx="1622.004" cy="-583.168" r="48.548"/>
<circle fill="#DDA4A1" cx="1625.998" cy="-459.542" r="48.548"/>
<circle fill="#F9EDC3" cx="1743.904" cy="-459.542" r="48.548"/>
<circle fill="#53181B" cx="1743.654" cy="-874.105" r="48.548"/>
<circle fill="#B57B1B" cx="1627.007" cy="-873.085" r="48.548"/>
<circle fill="#625D5E" cx="1625" cy="-749.458" r="48.548"/>
<circle fill="#8D191E" cx="1740.907" cy="-749.458" r="48.548"/>
<line fill="none" stroke="#000000" stroke-miterlimit="10" x1="1471.884" y1="-937.736" x2="1471.884" y2="-388.65"/>
<line fill="none" stroke="#000000" stroke-miterlimit="10" x1="1110.407" y1="-670.637" x2="1833.371" y2="-670.637"/>
<rect x="-596.399" y="-820.785" fill="#FFFFFF" width="53.699" height="73.227"/>
<g>
	<g>
		<path fill="#C65474" d="M-572.12-835.59c-28.713,0-51.99,23.277-51.99,51.993c0,28.715,23.277,51.992,51.99,51.992
			c28.717,0,51.994-23.277,51.994-51.992C-520.126-812.313-543.403-835.59-572.12-835.59z M-550.948-754.175h-9.463l-4.115-11.625
			v7.25l-5.26,4.375h-9.375v-3.625l-3.875,3.625h-9.75v-55.929l4.83-3.85h9.852v3.652l3.694-3.652h13.083
			c11.75,1.402,13.25,11.736,13.25,11.736c1.416,9.25-0.709,14.791-0.709,14.791c-1.209,4.376-5.508,7.241-5.508,7.241l8.633,21.635
			L-550.948-754.175z"/>
		<rect x="-591.922" y="-809.408" fill="#C65474" width="8.256" height="54.442"/>
		<path fill="#C65474" d="M-554.331-782.362c1.189-2.603,1.784-5.976,1.784-10.12v-1.371c0-2.465-0.266-4.563-0.797-6.295
			c-0.531-1.731-1.237-3.172-2.119-4.318c-0.882-1.148-1.892-2.051-3.028-2.71c-1.137-0.658-2.316-1.152-3.538-1.481
			c-1.222-0.33-2.443-0.537-3.665-0.622c-1.223-0.085-2.343-0.128-3.363-0.128h-8.957v54.442h8.097v-20.367h3.092l7.235,20.367
			h8.733l-8.733-21.771C-557.274-777.884-555.521-779.759-554.331-782.362z M-560.834-790.984c0,1.828-0.139,3.363-0.414,4.605
			c-0.276,1.244-0.723,2.242-1.339,2.996c-0.616,0.756-1.424,1.292-2.423,1.61c-0.999,0.319-2.221,0.479-3.665,0.479h-1.243v-22.089
			h1.243c1.509,0,2.762,0.158,3.761,0.478s1.801,0.808,2.407,1.466c0.605,0.659,1.035,1.498,1.29,2.519
			c0.256,1.021,0.383,2.231,0.383,3.634V-790.984z"/>
	</g>
</g>
<g>
	<g>
		<path fill="#C65474" d="M-572.12-685.59c-28.713,0-51.99,23.277-51.99,51.993c0,28.715,23.277,51.992,51.99,51.992
			c28.717,0,51.994-23.277,51.994-51.992C-520.126-662.313-543.403-685.59-572.12-685.59z M-550.948-604.175h-9.463l-4.115-11.625
			v7.25l-5.26,4.375h-9.375v-3.625l-3.875,3.625h-9.75v-55.929l4.83-3.85h9.852v3.652l3.694-3.652h13.083
			c11.75,1.402,13.25,11.736,13.25,11.736c1.416,9.25-0.709,14.791-0.709,14.791c-1.209,4.376-5.508,7.241-5.508,7.241l8.633,21.635
			L-550.948-604.175z"/>
		<rect x="-591.922" y="-659.408" fill="#C65474" width="8.256" height="54.442"/>
		<path fill="#C65474" d="M-554.331-632.362c1.189-2.603,1.784-5.976,1.784-10.12v-1.371c0-2.465-0.266-4.563-0.797-6.295
			c-0.531-1.731-1.237-3.172-2.119-4.318c-0.882-1.148-1.892-2.051-3.028-2.71c-1.137-0.658-2.316-1.152-3.538-1.481
			c-1.222-0.33-2.443-0.537-3.665-0.622c-1.223-0.085-2.343-0.128-3.363-0.128h-8.957v54.442h8.097v-20.367h3.092l7.235,20.367
			h8.733l-8.733-21.771C-557.274-627.884-555.521-629.759-554.331-632.362z M-560.834-640.984c0,1.828-0.139,3.363-0.414,4.605
			c-0.276,1.244-0.723,2.242-1.339,2.996c-0.616,0.756-1.424,1.292-2.423,1.61c-0.999,0.319-2.221,0.479-3.665,0.479h-1.243v-22.089
			h1.243c1.509,0,2.762,0.158,3.761,0.478s1.801,0.808,2.407,1.466c0.605,0.659,1.035,1.498,1.29,2.519
			c0.256,1.021,0.383,2.231,0.383,3.634V-640.984z"/>
	</g>
</g>
<g>
	
		<text transform="matrix(1 0 0 1 -593.6123 -605.1426)" fill="#FFFFFF" font-family="'FjallaOne-Regular'" font-size="65.2793" letter-spacing="-3">IR</text>
</g>
<g>
	<path fill="#FFFFFF" d="M-209.576-426.625c-0.606-0.658-1.408-1.147-2.407-1.466c-0.999-0.319-2.252-0.479-3.761-0.479h-1.243
		v22.089h1.243c1.444,0,2.666-0.159,3.665-0.478c0.999-0.319,1.807-0.855,2.423-1.61c0.616-0.754,1.063-1.753,1.339-2.996
		c0.275-1.243,0.414-2.777,0.414-4.605v-4.303c0-1.403-0.127-2.614-0.383-3.634C-208.541-425.127-208.971-425.966-209.576-426.625z"
		/>
	<path fill="#FFFFFF" d="M-222.151-460.598c-28.713,0-51.99,23.277-51.99,51.993c0,28.715,23.277,51.992,51.99,51.992
		c28.717,0,51.994-23.277,51.994-51.992C-170.157-437.32-193.435-460.598-222.151-460.598z M-230.735-380.151h-8.256v-54.442h8.256
		V-380.151z M-206.66-380.151l-7.235-20.368h-3.092v20.368h-8.097v-54.442h8.957c1.021,0,2.141,0.043,3.363,0.128
		c1.222,0.085,2.443,0.292,3.665,0.621c1.222,0.33,2.401,0.824,3.538,1.482c1.137,0.659,2.146,1.562,3.028,2.709
		s1.588,2.588,2.119,4.319c0.531,1.732,0.797,3.83,0.797,6.295v1.371c0,4.144-0.595,7.518-1.784,10.12
		c-1.19,2.604-2.943,4.479-5.26,5.626l8.733,21.771H-206.66z"/>
</g>
</svg>
