<?xml version="1.0" encoding="utf-8"?>
<!-- Generator: Adobe Illustrator 16.0.0, SVG Export Plug-In . SVG Version: 6.00 Build 0)  -->
<!DOCTYPE svg PUBLIC "-//W3C//DTD SVG 1.1//EN" "http://www.w3.org/Graphics/SVG/1.1/DTD/svg11.dtd">
<svg version="1.1" id="Capa_1" xmlns="http://www.w3.org/2000/svg" xmlns:xlink="http://www.w3.org/1999/xlink" x="0px" y="0px"
	 width="105.896px" height="106.357px" viewBox="0 0 105.896 106.357" enable-background="new 0 0 105.896 106.357"
	 xml:space="preserve">
<g>
	<g>
		<path fill="#FFFFFF" d="M53.186,1.306c-28.713,0-51.99,23.277-51.99,51.993c0,28.715,23.277,51.992,51.99,51.992
			c28.717,0,51.994-23.277,51.994-51.992C105.18,24.583,81.902,1.306,53.186,1.306z M74.357,82.721h-9.463l-4.115-11.625v7.25
			l-5.26,4.375h-9.375v-3.625l-3.875,3.625h-9.75V26.793l4.83-3.85h9.852v3.652l3.694-3.652h13.083
			c11.75,1.402,13.25,11.735,13.25,11.735c1.416,9.25-0.709,14.791-0.709,14.791c-1.209,4.376-5.508,7.241-5.508,7.241l8.633,21.635
			L74.357,82.721z"/>
		<rect x="33.384" y="27.488" fill="#FFFFFF" width="8.256" height="54.441"/>
		<path fill="#FFFFFF" d="M70.975,54.533c1.189-2.603,1.784-5.976,1.784-10.12v-1.371c0-2.465-0.266-4.563-0.797-6.295
			c-0.531-1.731-1.237-3.172-2.119-4.318c-0.882-1.148-1.892-2.051-3.028-2.71c-1.137-0.658-2.316-1.152-3.538-1.482
			c-1.222-0.328-2.443-0.536-3.665-0.621c-1.223-0.084-2.343-0.127-3.363-0.127h-8.957V81.93h8.097V61.563h3.092l7.235,20.367h8.733
			l-8.733-21.771C68.031,59.012,69.784,57.137,70.975,54.533z M64.472,45.911c0,1.828-0.139,3.363-0.414,4.605
			c-0.276,1.244-0.723,2.242-1.339,2.996c-0.616,0.756-1.424,1.292-2.423,1.61c-0.999,0.319-2.221,0.479-3.665,0.479h-1.243V33.513
			h1.243c1.509,0,2.762,0.158,3.761,0.478s1.801,0.808,2.407,1.466c0.605,0.659,1.035,1.498,1.29,2.519
			c0.256,1.021,0.383,2.231,0.383,3.634V45.911z"/>
	</g>
</g>
</svg>
