<?xml version="1.0" encoding="utf-8"?>
<!-- Generator: Adobe Illustrator 16.0.0, SVG Export Plug-In . SVG Version: 6.00 Build 0)  -->
<!DOCTYPE svg PUBLIC "-//W3C//DTD SVG 1.1//EN" "http://www.w3.org/Graphics/SVG/1.1/DTD/svg11.dtd">
<svg version="1.1" id="Capa_1" xmlns="http://www.w3.org/2000/svg" xmlns:xlink="http://www.w3.org/1999/xlink" x="0px" y="0px"
	 width="1880.656px" height="811.666px" viewBox="0 0 1880.656 811.666" enable-background="new 0 0 1880.656 811.666"
	 xml:space="preserve">
<rect x="-598.049" y="-670.359" fill="#C65474" width="57.185" height="70.117"/>
<circle cx="-1351.791" cy="-880.356" r="51.993"/>
<text transform="matrix(1 0 0 1 -1290.4587 -883.7637)" font-family="'FjallaOne-Regular'" font-size="43.5026">INTERNET</text>
<text transform="matrix(1 0 0 1 -1290.4587 -838.7061)" font-family="'FjallaOne-Regular'" font-size="46.7228">RECORRE</text>
<g>
	<path fill="#FFFFFF" d="M-1372.354-905.803v55.928h9.75l3.875-3.625v3.625h9.375l5.26-4.375v-7.25l4.115,11.625h9.464l5.286-4.375
		l-8.633-21.635c0,0,4.3-2.865,5.508-7.24c0,0,2.126-5.541,0.709-14.791c0,0-1.5-10.334-13.25-11.736h-13.083l-3.692,3.652v-3.652
		h-9.854L-1372.354-905.803z"/>
	<g>
		<text transform="matrix(1 0 0 1 -1376.1423 -850.666)" font-family="'FjallaOne-Regular'" font-size="65.2793">IR</text>
	</g>
</g>
<g>
	<path fill="#FFFFFF" d="M1483.967,15.996c-214.947,0-389.207,174.251-389.207,389.22c0,214.954,174.26,389.204,389.207,389.204
		c214.979,0,389.24-174.25,389.24-389.204C1873.205,190.247,1698.948,15.996,1483.967,15.996z M1642.465,625.463h-70.843
		l-30.807-87.021v54.271l-39.377,32.751h-70.184v-27.136l-29.011,27.136h-72.989V206.79l36.157-28.817h73.752v27.341l27.646-27.341
		h97.949c87.965,10.497,99.192,87.849,99.192,87.849c10.603,69.245-5.309,110.723-5.309,110.723
		c-9.051,32.765-41.23,54.214-41.23,54.214l64.627,161.954L1642.465,625.463z"/>
	<rect x="1335.721" y="211.995" fill="#FFFFFF" width="61.805" height="407.546"/>
	<path fill="#FFFFFF" d="M1617.141,414.456c8.904-19.489,13.35-44.739,13.35-75.765v-10.265c0-18.452-1.988-34.154-5.965-47.123
		c-3.979-12.954-9.256-23.744-15.865-32.327c-6.594-8.597-14.149-15.352-22.662-20.278c-8.51-4.927-17.342-8.627-26.493-11.098
		c-9.14-2.464-18.291-4.021-27.431-4.648c-9.151-0.637-17.545-0.958-25.18-0.958h-67.055V619.54h60.606V467.076h23.146
		l54.174,152.465h65.371l-65.371-162.978C1595.106,447.981,1608.221,433.945,1617.141,414.456z M1568.449,349.905
		c0,13.685-1.037,25.177-3.1,34.476c-2.063,9.313-5.41,16.785-10.016,22.429c-4.621,5.658-10.66,9.682-18.146,12.063
		c-7.473,2.384-16.625,3.582-27.432,3.582h-9.313v-165.36h9.313c11.289,0,20.676,1.185,28.146,3.582
		c7.484,2.383,13.48,6.038,18.029,10.966c4.531,4.941,7.748,11.214,9.647,18.86c1.916,7.632,2.865,16.697,2.865,27.194v32.209
		L1568.449,349.905L1568.449,349.905z"/>
</g>
<g>
	<g>
		<path fill="#FFFFFF" d="M-272.258-728.446h3.729v24.593h-3.729V-728.446z"/>
		<path fill="#FFFFFF" d="M-264.324-728.446h3.023l5.961,16.458h0.086c-0.027-0.384-0.067-0.811-0.115-1.281
			c-0.047-0.47-0.091-1.006-0.129-1.605c-0.039-0.6-0.072-1.278-0.103-2.038c-0.027-0.759-0.043-1.612-0.043-2.563v-8.97h3.342
			v24.593h-3.055l-5.933-16.026h-0.115c0.029,0.432,0.068,0.9,0.115,1.404c0.049,0.504,0.092,1.097,0.13,1.778
			c0.039,0.682,0.073,1.476,0.101,2.383c0.029,0.907,0.044,1.984,0.044,3.233v7.228h-3.312L-264.324-728.446L-264.324-728.446z"/>
		<path fill="#FFFFFF" d="M-245.821-725.509h-3.96v-2.938h11.635v2.938h-3.943v21.656h-3.729L-245.821-725.509L-245.821-725.509z"/>
		<path fill="#FFFFFF" d="M-235.627-728.446h9.111v2.938h-5.386v7.358h4.161v2.937h-4.161v8.424h5.53v2.938h-9.258L-235.627-728.446
			L-235.627-728.446z"/>
		<path fill="#FFFFFF" d="M-223.676-728.446h4.046c0.461,0,0.967,0.021,1.519,0.061s1.104,0.132,1.656,0.281
			s1.084,0.372,1.598,0.669c0.516,0.297,0.97,0.706,1.368,1.224c0.398,0.519,0.718,1.169,0.957,1.951
			c0.239,0.783,0.36,1.729,0.36,2.844v0.619c0,1.872-0.271,3.396-0.809,4.573c-0.537,1.176-1.329,2.022-2.375,2.54l3.945,9.835
			h-3.945l-3.269-9.2h-1.397v9.2h-3.654V-728.446L-223.676-728.446z M-219.458-715.746c0.651,0,1.205-0.072,1.656-0.216
			c0.45-0.145,0.813-0.387,1.094-0.728c0.277-0.341,0.479-0.792,0.604-1.354c0.125-0.561,0.188-1.255,0.188-2.081v-1.944
			c0-0.633-0.061-1.181-0.173-1.641c-0.115-0.461-0.313-0.84-0.583-1.138c-0.274-0.297-0.639-0.521-1.091-0.663
			c-0.447-0.146-1.017-0.216-1.696-0.216h-0.563v9.979h0.563L-219.458-715.746L-219.458-715.746z"/>
		<path fill="#FFFFFF" d="M-208.587-728.446h3.022l5.961,16.458h0.086c-0.026-0.384-0.065-0.811-0.113-1.281
			c-0.051-0.47-0.093-1.006-0.131-1.605c-0.037-0.6-0.071-1.278-0.102-2.038c-0.028-0.759-0.043-1.612-0.043-2.563v-8.97h3.34
			v24.593h-3.052l-5.934-16.026h-0.114c0.027,0.432,0.064,0.9,0.114,1.404c0.049,0.504,0.093,1.097,0.131,1.778
			c0.038,0.682,0.069,1.476,0.101,2.383s0.043,1.984,0.043,3.233v7.228h-3.312L-208.587-728.446L-208.587-728.446z"/>
		<path fill="#FFFFFF" d="M-192.359-728.446h9.114v2.938h-5.385v7.358h4.159v2.937h-4.159v8.424h5.527v2.938h-9.259
			L-192.359-728.446L-192.359-728.446z"/>
		<path fill="#FFFFFF" d="M-178.134-725.509h-3.958v-2.938h11.633v2.938h-3.945v21.656h-3.729L-178.134-725.509L-178.134-725.509z"
			/>
	</g>
	<g>
		<path fill="#FFFFFF" d="M-272.368-699.723h4.345c0.496,0,1.038,0.021,1.632,0.062c0.595,0.042,1.188,0.143,1.779,0.302
			c0.592,0.16,1.163,0.399,1.716,0.719c0.552,0.32,1.042,0.759,1.47,1.314c0.43,0.558,0.771,1.256,1.027,2.096
			c0.258,0.842,0.388,1.859,0.388,3.055v0.665c0,2.011-0.29,3.646-0.865,4.91c-0.577,1.264-1.43,2.173-2.553,2.729l4.237,10.563
			h-4.237l-3.51-9.882h-1.501v9.882h-3.928V-699.723L-272.368-699.723z M-267.838-686.083c0.7,0,1.294-0.076,1.776-0.231
			c0.484-0.155,0.876-0.414,1.178-0.781c0.299-0.365,0.515-0.853,0.647-1.453c0.135-0.604,0.202-1.349,0.202-2.235v-2.088
			c0-0.681-0.063-1.269-0.188-1.763c-0.124-0.494-0.333-0.902-0.627-1.221c-0.294-0.32-0.683-0.559-1.168-0.712
			c-0.482-0.155-1.092-0.233-1.822-0.233h-0.604v10.718L-267.838-686.083L-267.838-686.083z"/>
		<path fill="#FFFFFF" d="M-256.162-699.723h9.79v3.155h-5.784v7.901h4.469v3.155h-4.469v9.048h5.938v3.153h-9.944V-699.723z"/>
		<path fill="#FFFFFF" d="M-237.635-673.076c-0.413,0-0.859-0.034-1.34-0.101c-0.479-0.067-0.959-0.209-1.438-0.427
			c-0.479-0.216-0.939-0.522-1.377-0.92c-0.438-0.396-0.825-0.92-1.16-1.568c-0.335-0.65-0.604-1.451-0.804-2.406
			c-0.201-0.953-0.304-2.089-0.304-3.409v-9.354c0-1.329,0.104-2.466,0.312-3.41c0.205-0.943,0.479-1.737,0.819-2.381
			c0.341-0.646,0.73-1.157,1.176-1.54c0.44-0.381,0.899-0.672,1.376-0.873c0.474-0.2,0.943-0.333,1.415-0.394
			c0.469-0.063,0.902-0.093,1.307-0.093c1.052,0,1.931,0.146,2.638,0.439c0.705,0.294,1.272,0.696,1.7,1.208
			c0.427,0.51,0.731,1.104,0.913,1.786c0.18,0.681,0.271,1.399,0.271,2.165c0,0.566-0.029,1.089-0.085,1.569
			c-0.06,0.479-0.144,1.008-0.258,1.585h-3.246v-1.345c0-1.454-0.159-2.542-0.479-3.264c-0.32-0.722-0.789-1.083-1.407-1.083
			c-0.371,0-0.695,0.072-0.975,0.217s-0.51,0.389-0.696,0.734c-0.186,0.346-0.327,0.802-0.425,1.368
			c-0.099,0.568-0.147,1.273-0.147,2.12v12.063c0,0.824,0.038,1.509,0.116,2.056c0.077,0.547,0.204,0.985,0.379,1.314
			c0.175,0.33,0.405,0.563,0.688,0.703c0.283,0.141,0.626,0.209,1.026,0.209c0.259,0,0.507-0.06,0.742-0.177
			c0.236-0.119,0.445-0.305,0.626-0.558c0.184-0.252,0.325-0.572,0.435-0.959c0.106-0.387,0.163-0.842,0.163-1.369v-2.581h3.665
			v2.442c0,2.125-0.485,3.688-1.454,4.701C-234.429-673.598-235.82-673.087-237.635-673.076z"/>
		<path fill="#FFFFFF" d="M-223.006-673.076c-0.425,0-0.883-0.034-1.376-0.101c-0.495-0.067-0.985-0.209-1.472-0.427
			c-0.482-0.216-0.95-0.522-1.397-0.92c-0.448-0.396-0.848-0.92-1.19-1.568c-0.345-0.65-0.622-1.451-0.827-2.406
			c-0.206-0.953-0.31-2.089-0.31-3.409v-9.354c0-1.329,0.104-2.466,0.315-3.41c0.213-0.943,0.491-1.737,0.845-2.381
			c0.351-0.646,0.75-1.157,1.195-1.54c0.449-0.381,0.918-0.672,1.408-0.873c0.489-0.2,0.979-0.333,1.461-0.394
			c0.485-0.063,0.936-0.093,1.348-0.093c0.392,0,0.825,0.028,1.307,0.085c0.479,0.059,0.96,0.18,1.439,0.37
			c0.479,0.191,0.943,0.475,1.397,0.852c0.452,0.376,0.854,0.886,1.206,1.53c0.351,0.646,0.631,1.443,0.843,2.396
			c0.211,0.955,0.316,2.106,0.316,3.457v9.354c0,1.313-0.108,2.438-0.324,3.379c-0.217,0.944-0.5,1.742-0.852,2.397
			c-0.353,0.654-0.755,1.18-1.216,1.577c-0.458,0.396-0.927,0.707-1.405,0.928c-0.479,0.222-0.956,0.368-1.432,0.441
			C-222.195-673.113-222.625-673.076-223.006-673.076z M-223.006-676.092c0.392,0,0.732-0.068,1.026-0.202
			c0.294-0.133,0.536-0.365,0.729-0.696c0.188-0.329,0.334-0.765,0.433-1.307c0.098-0.54,0.146-1.223,0.146-2.048v-12.02
			c0-0.846-0.051-1.551-0.146-2.119c-0.099-0.566-0.242-1.021-0.433-1.367c-0.191-0.346-0.436-0.591-0.729-0.735
			s-0.637-0.218-1.026-0.218c-0.401,0-0.752,0.073-1.054,0.218c-0.299,0.145-0.547,0.39-0.74,0.735
			c-0.196,0.346-0.345,0.801-0.439,1.367c-0.1,0.568-0.147,1.273-0.147,2.119v12.02c0,0.825,0.05,1.508,0.147,2.048
			c0.097,0.542,0.243,0.978,0.439,1.307c0.193,0.331,0.441,0.563,0.74,0.696C-223.758-676.16-223.407-676.092-223.006-676.092z"/>
		<path fill="#FFFFFF" d="M-212.706-699.723h4.346c0.495,0,1.038,0.021,1.631,0.062c0.593,0.042,1.188,0.143,1.779,0.302
			c0.592,0.16,1.164,0.399,1.716,0.719c0.553,0.32,1.042,0.759,1.47,1.314c0.43,0.558,0.771,1.256,1.027,2.096
			c0.258,0.842,0.388,1.859,0.388,3.055v0.665c0,2.011-0.29,3.646-0.865,4.91c-0.577,1.264-1.429,2.173-2.553,2.729l4.238,10.563
			h-4.238l-3.51-9.882h-1.5v9.882h-3.929V-699.723z M-208.175-686.083c0.699,0,1.293-0.076,1.775-0.231
			c0.485-0.155,0.877-0.414,1.176-0.781c0.302-0.365,0.518-0.853,0.65-1.453c0.134-0.604,0.201-1.349,0.201-2.235v-2.088
			c0-0.681-0.063-1.269-0.188-1.763c-0.123-0.494-0.332-0.902-0.627-1.221c-0.293-0.32-0.683-0.559-1.167-0.712
			c-0.482-0.155-1.093-0.233-1.824-0.233h-0.603v10.718L-208.175-686.083L-208.175-686.083z"/>
		<path fill="#FFFFFF" d="M-196.499-699.723h4.345c0.495,0,1.039,0.021,1.633,0.062c0.592,0.042,1.187,0.143,1.778,0.302
			c0.593,0.16,1.165,0.399,1.717,0.719c0.551,0.32,1.04,0.759,1.468,1.314c0.43,0.558,0.771,1.256,1.029,2.096
			c0.258,0.842,0.387,1.859,0.387,3.055v0.665c0,2.011-0.289,3.646-0.864,4.91c-0.577,1.264-1.431,2.173-2.553,2.729l4.236,10.563
			h-4.236l-3.512-9.882h-1.5v9.882h-3.928V-699.723L-196.499-699.723z M-191.968-686.083c0.698,0,1.294-0.076,1.776-0.231
			c0.484-0.155,0.877-0.414,1.176-0.781c0.3-0.365,0.517-0.853,0.648-1.453c0.134-0.604,0.201-1.349,0.201-2.235v-2.088
			c0-0.681-0.063-1.269-0.187-1.763c-0.125-0.494-0.333-0.902-0.627-1.221c-0.294-0.32-0.683-0.559-1.167-0.712
			c-0.483-0.155-1.094-0.233-1.825-0.233h-0.604v10.718L-191.968-686.083L-191.968-686.083z"/>
		<path fill="#FFFFFF" d="M-180.291-699.723h9.789v3.155h-5.784v7.901h4.47v3.155h-4.47v9.048h5.938v3.153h-9.94L-180.291-699.723
			L-180.291-699.723z"/>
	</g>
	<g>
		<path fill="#FFFFFF" d="M-221.903-843.333c-28.713,0-51.99,23.277-51.99,51.993c0,28.715,23.277,51.992,51.99,51.992
			c28.717,0,51.994-23.277,51.994-51.992C-169.909-820.056-193.187-843.333-221.903-843.333z M-200.731-761.918h-9.463
			l-4.115-11.625v7.25l-5.26,4.375h-9.375v-3.625l-3.875,3.625h-9.75v-55.928l4.83-3.853h9.852v3.652l3.694-3.652h13.083
			c11.75,1.402,13.25,11.736,13.25,11.736c1.416,9.25-0.709,14.791-0.709,14.791c-1.209,4.376-5.508,7.241-5.508,7.241l8.633,21.635
			L-200.731-761.918z"/>
		<rect x="-241.705" y="-817.151" fill="#FFFFFF" width="8.256" height="54.442"/>
		<path fill="#FFFFFF" d="M-204.114-790.105c1.189-2.603,1.784-5.976,1.784-10.12v-1.371c0-2.465-0.268-4.563-0.797-6.295
			c-0.531-1.731-1.237-3.172-2.119-4.318c-0.882-1.148-1.894-2.051-3.028-2.71c-1.137-0.658-2.314-1.152-3.538-1.482
			c-1.222-0.329-2.441-0.537-3.665-0.622c-1.223-0.084-2.343-0.127-3.361-0.127h-8.957v54.442h8.097v-20.367h3.092l7.235,20.367
			h8.731l-8.731-21.771C-207.058-785.627-205.305-787.502-204.114-790.105z M-210.617-798.728c0,1.828-0.139,3.363-0.414,4.605
			c-0.276,1.244-0.723,2.242-1.339,2.996c-0.616,0.756-1.424,1.292-2.423,1.61c-0.999,0.319-2.223,0.479-3.665,0.479h-1.243v-22.089
			h1.243c1.509,0,2.762,0.158,3.761,0.478s1.801,0.808,2.407,1.466c0.604,0.659,1.035,1.498,1.29,2.519
			c0.256,1.021,0.383,2.231,0.383,3.634V-798.728L-210.617-798.728z"/>
	</g>
	<g>
		<path fill="#FFFFFF" d="M-222.51-621.708c-28.715,0-51.99,23.277-51.99,51.993c0,28.715,23.275,51.992,51.99,51.992
			c28.717,0,51.992-23.277,51.992-51.992C-170.516-598.431-193.793-621.708-222.51-621.708z M-201.338-540.293h-9.463l-4.115-11.625
			v7.25l-5.26,4.375h-9.375v-3.625l-3.875,3.625h-9.75v-55.928l4.828-3.853h9.854v3.652l3.694-3.652h13.083
			c11.75,1.402,13.25,11.735,13.25,11.735c1.416,9.25-0.709,14.791-0.709,14.791c-1.21,4.376-5.51,7.241-5.51,7.241l8.635,21.635
			L-201.338-540.293z"/>
		<rect x="-242.312" y="-595.525" fill="#FFFFFF" width="8.256" height="54.441"/>
		<path fill="#FFFFFF" d="M-204.721-568.48c1.189-2.603,1.784-5.976,1.784-10.12v-1.371c0-2.465-0.266-4.563-0.797-6.295
			c-0.531-1.732-1.237-3.172-2.119-4.318c-0.882-1.148-1.892-2.051-3.026-2.71c-1.139-0.658-2.316-1.152-3.538-1.482
			c-1.224-0.328-2.443-0.536-3.665-0.621c-1.225-0.084-2.343-0.127-3.363-0.127h-8.957v54.441h8.097v-20.367h3.094l7.233,20.367
			h8.733l-8.733-21.771C-207.664-564.002-205.911-565.877-204.721-568.48z M-211.224-577.103c0,1.828-0.139,3.363-0.414,4.605
			c-0.274,1.244-0.723,2.242-1.339,2.996c-0.614,0.756-1.424,1.292-2.423,1.61c-0.999,0.319-2.221,0.479-3.665,0.479h-1.243v-22.089
			h1.243c1.509,0,2.762,0.158,3.761,0.478s1.803,0.808,2.407,1.466c0.605,0.659,1.035,1.498,1.29,2.519
			c0.256,1.021,0.383,2.231,0.383,3.634V-577.103L-211.224-577.103z"/>
	</g>
</g>
<circle fill="#F9EDC3" cx="485.653" cy="-876.433" r="48.548"/>
<circle fill="#529188" cx="361.006" cy="-875.412" r="48.548"/>
<circle fill="#A4403C" cx="367" cy="-751.786" r="48.548"/>
<circle fill="#1E2E4F" cx="482.906" cy="-751.786" r="48.548"/>
<circle fill="#582B62" cx="485.653" cy="-583.86" r="48.548"/>
<circle fill="#D49E2B" cx="361.006" cy="-582.839" r="48.548"/>
<circle fill="#8D191E" cx="367" cy="-459.213" r="48.548"/>
<circle fill="#1C5872" cx="482.906" cy="-459.213" r="48.548"/>
<circle fill="#A3B5CF" cx="884.761" cy="-584.189" r="48.548"/>
<circle fill="#313654" cx="760.115" cy="-583.168" r="48.548"/>
<circle fill="#D0766A" cx="766.108" cy="-459.542" r="48.548"/>
<circle fill="#625D5E" cx="882.014" cy="-459.542" r="48.548"/>
<circle fill="#53181B" cx="881.764" cy="-874.105" r="48.548"/>
<circle fill="#B57B1B" cx="765.116" cy="-873.085" r="48.548"/>
<circle fill="#625D5E" cx="763.111" cy="-749.458" r="48.548"/>
<circle fill="#A6CBBF" cx="879.017" cy="-749.458" r="48.548"/>
<line fill="none" stroke="#000000" stroke-miterlimit="10" x1="609.992" y1="-937.736" x2="609.992" y2="-388.65"/>
<line fill="none" stroke="#FFFFFF" stroke-width="7" stroke-linecap="round" stroke-linejoin="round" stroke-miterlimit="10" x1="1005.992" y1="0" x2="1005.992" y2="811.666"/>
<line fill="none" stroke="#000000" stroke-miterlimit="10" x1="248.518" y1="-670.637" x2="971.481" y2="-670.637"/>
<circle fill="#F9EDC3" cx="1347.541" cy="-876.433" r="48.548"/>
<circle fill="#75B8DC" cx="1222.897" cy="-875.412" r="48.548"/>
<circle fill="#E7C845" cx="1223.889" cy="-751.786" r="48.548"/>
<circle fill="#1E2E4F" cx="1344.795" cy="-751.786" r="48.548"/>
<circle fill="#774F82" cx="1347.541" cy="-583.86" r="48.548"/>
<circle fill="#D49E2B" cx="1222.897" cy="-582.839" r="48.548"/>
<circle fill="#8D191E" cx="1223.889" cy="-459.213" r="48.548"/>
<circle fill="#625D5E" cx="1344.795" cy="-459.213" r="48.548"/>
<circle fill="#A3B5CF" cx="1746.651" cy="-584.189" r="48.548"/>
<circle fill="#B57B1B" cx="1622.004" cy="-583.168" r="48.548"/>
<circle fill="#DDA4A1" cx="1625.998" cy="-459.542" r="48.548"/>
<circle fill="#F9EDC3" cx="1743.905" cy="-459.542" r="48.548"/>
<circle fill="#53181B" cx="1743.655" cy="-874.105" r="48.548"/>
<circle fill="#B57B1B" cx="1627.006" cy="-873.085" r="48.548"/>
<circle fill="#625D5E" cx="1625" cy="-749.458" r="48.548"/>
<circle fill="#8D191E" cx="1740.906" cy="-749.458" r="48.548"/>
<line fill="none" stroke="#000000" stroke-miterlimit="10" x1="1471.883" y1="-937.736" x2="1471.883" y2="-388.65"/>
<line fill="none" stroke="#000000" stroke-miterlimit="10" x1="1110.406" y1="-670.637" x2="1833.369" y2="-670.637"/>
<rect x="-596.399" y="-820.785" fill="#FFFFFF" width="53.699" height="73.227"/>
<g>
	<g>
		<path fill="#C65474" d="M-572.12-835.59c-28.713,0-51.99,23.277-51.99,51.993c0,28.715,23.277,51.992,51.99,51.992
			c28.717,0,51.994-23.277,51.994-51.992C-520.126-812.313-543.403-835.59-572.12-835.59z M-550.948-754.175h-9.463l-4.115-11.625
			v7.25l-5.26,4.375h-9.375v-3.625l-3.875,3.625h-9.75v-55.929l4.83-3.85h9.852v3.652l3.694-3.652h13.083
			c11.75,1.402,13.25,11.736,13.25,11.736c1.416,9.25-0.709,14.791-0.709,14.791c-1.209,4.376-5.508,7.241-5.508,7.241l8.633,21.635
			L-550.948-754.175z"/>
		<rect x="-591.922" y="-809.408" fill="#C65474" width="8.256" height="54.442"/>
		<path fill="#C65474" d="M-554.331-782.362c1.188-2.603,1.784-5.976,1.784-10.12v-1.371c0-2.465-0.268-4.563-0.799-6.295
			c-0.529-1.731-1.235-3.172-2.117-4.318c-0.884-1.148-1.894-2.051-3.028-2.71c-1.137-0.658-2.316-1.152-3.538-1.481
			c-1.222-0.33-2.443-0.537-3.665-0.622c-1.223-0.085-2.343-0.128-3.363-0.128h-8.957v54.442h8.099v-20.367h3.092l7.235,20.367
			h8.731l-8.731-21.771C-557.274-777.884-555.521-779.759-554.331-782.362z M-560.834-790.984c0,1.828-0.141,3.363-0.414,4.605
			c-0.276,1.244-0.725,2.242-1.339,2.996c-0.616,0.756-1.426,1.292-2.423,1.61c-0.999,0.319-2.223,0.479-3.665,0.479h-1.243v-22.089
			h1.243c1.509,0,2.762,0.158,3.761,0.478c0.999,0.32,1.801,0.808,2.407,1.466c0.604,0.659,1.033,1.498,1.29,2.519
			c0.256,1.021,0.383,2.231,0.383,3.634V-790.984z"/>
	</g>
</g>
<g>
	<g>
		<path fill="#C65474" d="M-572.12-685.59c-28.713,0-51.99,23.277-51.99,51.993c0,28.715,23.277,51.992,51.99,51.992
			c28.717,0,51.994-23.277,51.994-51.992C-520.126-662.313-543.403-685.59-572.12-685.59z M-550.948-604.175h-9.463l-4.115-11.625
			v7.25l-5.26,4.375h-9.375v-3.625l-3.875,3.625h-9.75v-55.929l4.83-3.85h9.852v3.652l3.694-3.652h13.083
			c11.75,1.402,13.25,11.736,13.25,11.736c1.416,9.25-0.709,14.791-0.709,14.791c-1.209,4.376-5.508,7.241-5.508,7.241l8.633,21.635
			L-550.948-604.175z"/>
		<rect x="-591.922" y="-659.408" fill="#C65474" width="8.256" height="54.442"/>
		<path fill="#C65474" d="M-554.331-632.362c1.188-2.603,1.784-5.976,1.784-10.12v-1.371c0-2.465-0.268-4.563-0.799-6.295
			c-0.529-1.731-1.235-3.172-2.117-4.318c-0.884-1.148-1.894-2.051-3.028-2.71c-1.137-0.658-2.316-1.152-3.538-1.481
			c-1.222-0.33-2.443-0.537-3.665-0.622c-1.223-0.085-2.343-0.128-3.363-0.128h-8.957v54.442h8.099v-20.367h3.092l7.235,20.367
			h8.731l-8.731-21.771C-557.274-627.884-555.521-629.759-554.331-632.362z M-560.834-640.984c0,1.828-0.141,3.363-0.414,4.605
			c-0.276,1.244-0.725,2.242-1.339,2.996c-0.616,0.756-1.426,1.292-2.423,1.61c-0.999,0.319-2.223,0.479-3.665,0.479h-1.243v-22.089
			h1.243c1.509,0,2.762,0.158,3.761,0.478c0.999,0.32,1.801,0.808,2.407,1.466c0.604,0.659,1.033,1.498,1.29,2.519
			c0.256,1.021,0.383,2.231,0.383,3.634V-640.984z"/>
	</g>
</g>
<g>
	<text transform="matrix(1 0 0 1 -593.613 -605.1426)" fill="#FFFFFF" font-family="'FjallaOne-Regular'" font-size="65.2793">IR</text>
</g>
<g>
	<path fill="#FFFFFF" d="M-209.576-426.625c-0.606-0.658-1.408-1.147-2.407-1.466c-0.999-0.319-2.252-0.479-3.761-0.479h-1.243
		v22.089h1.243c1.444,0,2.666-0.159,3.665-0.478c0.999-0.319,1.807-0.855,2.423-1.61c0.616-0.754,1.063-1.753,1.339-2.996
		c0.275-1.243,0.414-2.777,0.414-4.605v-4.303c0-1.403-0.127-2.614-0.383-3.634C-208.541-425.127-208.971-425.966-209.576-426.625z"
		/>
	<path fill="#FFFFFF" d="M-222.151-460.598c-28.713,0-51.99,23.277-51.99,51.993c0,28.715,23.277,51.992,51.99,51.992
		c28.717,0,51.994-23.277,51.994-51.992C-170.157-437.32-193.435-460.598-222.151-460.598z M-230.735-380.151h-8.256v-54.442h8.256
		V-380.151z M-206.66-380.151l-7.235-20.368h-3.092v20.368h-8.097v-54.442h8.957c1.021,0,2.141,0.043,3.361,0.128
		c1.224,0.085,2.443,0.292,3.665,0.621c1.224,0.33,2.401,0.824,3.538,1.479c1.139,0.659,2.146,1.563,3.028,2.709
		c0.882,1.147,1.588,2.588,2.119,4.319c0.531,1.732,0.797,3.83,0.797,6.295v1.371c0,4.144-0.595,7.518-1.784,10.12
		c-1.188,2.604-2.943,4.479-5.26,5.626l8.731,21.771L-206.66-380.151L-206.66-380.151z"/>
</g>
<path fill="#FFFFFF" d="M59.754,560.438c-26.955,21.139-44.294,53.971-44.294,90.873c0,63.762,51.687,115.448,115.44,115.448
	c26.965,0,51.749-9.271,71.395-24.765C130.578,697.617,83.535,633.165,59.754,560.438z"/>
<path fill="#FFFFFF" d="M887.278,344.32c-3.608-2.358-6.782-5.329-9.354-8.781c-0.09-0.1-0.169-0.222-0.248-0.323
	c-0.255-0.351-0.515-0.688-0.749-1.046c0.275,0.411,0.537,0.831,0.843,1.23c-0.019,0.079-0.036,0.157-0.063,0.243
	c-21.825-24.267-53.46-39.542-88.67-39.542c-64.84,0-117.546,51.749-119.173,116.195c-0.052,0.034-0.106,0.069-0.166,0.093v172.285
	c0,19.489-15.809,35.297-35.307,35.297h-2.949c-19.497,0-35.299-15.808-35.299-35.297V245.527c0-19.49,15.802-35.299,35.299-35.299
	h2.949c19.498,0,35.307,15.809,35.307,35.299v18.349c32.83-25.906,74.259-41.413,119.339-41.413
	c25.104,0,45.789,3.511,67.393,12.095c-18.824-50.553-52.27-118.873-106.04-156.136c-13.063-9.052-24.982-18.976-38.172-26.606
	c-13.188-7.638-26.802-14.064-40.836-19.344c-190.681-61.378-454.026,12.517-561.821,177.45
	C41.529,317.86,23.272,448.885,59.754,560.438c19.612-15.366,44.294-24.563,71.146-24.563c63.754,0,115.439,51.685,115.439,115.438
	c0,36.804-17.233,69.546-44.046,90.686c15.143,9.37,31.367,17.854,48.717,25.325c146.521,61.979,330.374,24.742,457.707-72.896
	c13.044-8.938,25.443-18.338,37.229-28.218c70.683-59.302,119.214-136.278,137.498-218.074c3.048-13.628,5.255-27.397,6.578-41.27
	C890.469,385.495,890.053,364.871,887.278,344.32z M569.565,589.749c0-0.012-0.021-0.033-0.021-0.038
	c-0.009,0.056-0.018,0.124-0.021,0.181c0.006,0.013,0.006,0.029,0.015,0.048c-0.313,2.053-0.775,4.039-1.421,5.972
	c-4.7,13.973-17.883,24.063-33.447,24.063h-2.947c-19.501,0-35.3-15.808-35.3-35.297v-17.834
	c-32.836,25.918-74.281,41.4-119.362,41.4c-106.532,0-192.894-86.359-192.894-192.894c0-106.521,86.36-192.887,192.894-192.887
	c45.066,0,86.498,15.507,119.326,41.404v-18.34c0-19.49,15.813-35.299,35.314-35.299h0.021h2.924
	c19.493,0,35.308,15.809,35.308,35.299l0.023,339.148C569.975,586.399,569.807,588.085,569.565,589.749z"/>
<path fill="#FFFFFF" d="M377.058,296.102c-65.862,0-119.249,53.396-119.249,119.248c0,65.86,53.387,119.246,119.249,119.246
	c65.859,0,119.241-53.386,119.241-119.246C496.299,349.499,442.916,296.102,377.058,296.102z"/>
</svg>
