<?xml version="1.0" encoding="utf-8"?>
<!-- Generator: Adobe Illustrator 16.0.0, SVG Export Plug-In . SVG Version: 6.00 Build 0)  -->
<!DOCTYPE svg PUBLIC "-//W3C//DTD SVG 1.1//EN" "http://www.w3.org/Graphics/SVG/1.1/DTD/svg11.dtd">
<svg version="1.1" id="Capa_1" xmlns="http://www.w3.org/2000/svg" xmlns:xlink="http://www.w3.org/1999/xlink" x="0px" y="0px"
	 width="105.896px" height="106.357px" viewBox="0 0 105.896 106.357" enable-background="new 0 0 105.896 106.357"
	 xml:space="preserve">
<g>
	<g>
		<path fill="#DC557A" d="M53.186,1.306c-28.713,0-51.99,23.276-51.99,51.992s23.277,51.992,51.99,51.992
			c28.717,0,51.994-23.276,51.994-51.992S81.902,1.306,53.186,1.306z M74.357,82.721h-9.463l-4.115-11.625v7.25l-5.26,4.375h-9.375
			v-3.625l-3.875,3.625h-9.75V26.793l4.83-3.85h9.852v3.651l3.694-3.651h13.083c11.75,1.401,13.25,11.734,13.25,11.734
			c1.416,9.25-0.709,14.791-0.709,14.791c-1.209,4.376-5.508,7.241-5.508,7.241l8.633,21.635L74.357,82.721z"/>
		<rect x="33.384" y="27.488" fill="#DC557A" width="8.257" height="54.441"/>
		<path fill="#DC557A" d="M70.975,54.533c1.188-2.603,1.783-5.976,1.783-10.12v-1.371c0-2.465-0.266-4.563-0.797-6.295
			c-0.53-1.73-1.236-3.172-2.119-4.317c-0.882-1.148-1.892-2.052-3.027-2.711c-1.137-0.657-2.316-1.151-3.538-1.481
			c-1.222-0.328-2.443-0.536-3.665-0.621c-1.223-0.084-2.343-0.127-3.363-0.127h-8.957V81.93h8.098V61.563h3.092l7.234,20.367h8.733
			l-8.733-21.771C68.031,59.012,69.784,57.137,70.975,54.533z M64.472,45.911c0,1.828-0.14,3.363-0.414,4.605
			c-0.276,1.243-0.724,2.241-1.339,2.996c-0.616,0.756-1.425,1.292-2.424,1.609c-0.999,0.319-2.221,0.479-3.665,0.479h-1.242V33.513
			h1.242c1.51,0,2.763,0.157,3.762,0.478s1.801,0.808,2.406,1.466c0.605,0.659,1.035,1.498,1.29,2.52
			c0.257,1.021,0.384,2.23,0.384,3.634V45.911z"/>
	</g>
</g>
</svg>
