<?xml version="1.0" encoding="utf-8"?>
<!-- Generator: Adobe Illustrator 16.0.0, SVG Export Plug-In . SVG Version: 6.00 Build 0)  -->
<!DOCTYPE svg PUBLIC "-//W3C//DTD SVG 1.1//EN" "http://www.w3.org/Graphics/SVG/1.1/DTD/svg11.dtd">
<svg version="1.1" id="Capa_1" xmlns="http://www.w3.org/2000/svg" xmlns:xlink="http://www.w3.org/1999/xlink" x="0px" y="0px"
	 width="178.744px" height="44.688px" viewBox="0 0 178.744 44.688" enable-background="new 0 0 178.744 44.688"
	 xml:space="preserve">
<g>
	<path fill="#87868A" d="M3.435,31.194C1.953,32.356,1,34.16,1,36.188c0,3.504,2.841,6.346,6.344,6.346
		c1.482,0,2.843-0.511,3.924-1.361C7.327,38.733,4.741,35.191,3.435,31.194z"/>
	<path fill="#87868A" d="M48.398,18.834c-0.004-0.005-0.008-0.012-0.015-0.019c-0.014-0.019-0.026-0.039-0.04-0.058
		c0.014,0.023,0.029,0.046,0.047,0.067c-0.002,0.005-0.002,0.01-0.004,0.014c-1.199-1.334-2.938-2.173-4.873-2.173
		c-3.563,0-6.461,2.844-6.551,6.386c-0.002,0.001-0.006,0.003-0.009,0.004v9.469c0,1.071-0.868,1.939-1.94,1.939h-0.162
		c-1.072,0-1.939-0.868-1.939-1.939V13.887c0-1.071,0.869-1.939,1.939-1.939h0.162c1.073,0,1.94,0.868,1.94,1.939v1.008
		c1.804-1.424,4.082-2.274,6.56-2.274c1.379,0,2.516,0.192,3.702,0.664c-1.034-2.778-2.872-6.532-5.827-8.58
		c-0.718-0.497-1.373-1.043-2.099-1.463c-0.724-0.421-1.472-0.772-2.244-1.063C26.568-1.195,12.096,2.865,6.172,11.93
		c-3.739,5.932-4.743,13.133-2.737,19.264c1.077-0.845,2.434-1.351,3.909-1.351c3.503,0,6.344,2.841,6.344,6.344
		c0,2.022-0.947,3.821-2.42,4.984c0.833,0.514,1.724,0.98,2.677,1.392c8.053,3.406,18.157,1.359,25.155-4.006
		c0.717-0.492,1.397-1.008,2.047-1.551c3.883-3.259,6.552-7.489,7.557-11.985c0.167-0.75,0.289-1.507,0.361-2.269
		c0.024-1.174,0-2.309-0.151-3.438C48.714,19.187,48.541,19.024,48.398,18.834z M31.452,32.805c0-0.001-0.001-0.002-0.001-0.003
		c0,0.003,0,0.007-0.002,0.01l0.001,0.002c-0.017,0.114-0.042,0.224-0.078,0.329c-0.259,0.769-0.983,1.322-1.839,1.322h-0.162
		c-1.072,0-1.939-0.868-1.939-1.939v-0.979c-1.805,1.424-4.083,2.275-6.56,2.275c-5.855,0-10.602-4.746-10.602-10.603
		c0-5.854,4.746-10.6,10.602-10.6c2.477,0,4.754,0.852,6.558,2.274v-1.008c0-1.071,0.87-1.939,1.941-1.939l0,0h0.161
		c1.071,0,1.94,0.868,1.94,1.939l0.002,18.639C31.477,32.62,31.465,32.713,31.452,32.805z"/>
	<circle fill="#87868A" cx="20.873" cy="23.22" r="6.553"/>
</g>
<g>
	<g>
		<path fill-rule="evenodd" clip-rule="evenodd" fill="#87868A" d="M99.75,43.688c0-4.962,0-9.917,0-14.997
			c-1.155,0-2.291-0.026-3.424,0.028c-0.162,0.009-0.418,0.4-0.438,0.634c-0.06,0.676-0.021,1.359-0.023,2.039
			c-0.009,4.935-3.339,8.293-8.25,8.306c-3.341,0.009-6.684-0.031-10.024,0.023c-0.94,0.015-1.476-0.41-1.788-1.162
			c-0.195-0.469-0.279-1.017-0.271-1.526c0.049-3.496,0.188-6.99,0.195-10.485c0.005-3.162,1.311-5.655,3.608-7.716
			c1.568-1.406,3.406-1.645,5.379-1.229c0.319,0.068,0.603,0.308,1.127,0.59c-0.448,0.099-0.616,0.14-0.785,0.172
			c-1.857,0.353-3.199,1.802-3.329,3.6c-0.13,1.783,0.977,3.472,2.648,4.042c1.783,0.605,3.551-0.1,4.686-1.693
			c0.943-1.325,1.243-2.705,0.937-4.285c-0.445-2.298-1.551-4.066-3.911-4.701c-3.359-0.903-6.316-0.175-8.648,2.502
			c-0.673,0.773-1.204,1.671-1.925,2.687c0-1.718,0-3.244,0-4.82c-3.361,0-6.622,0-9.89,0c0,1.235,0,2.396,0,3.666
			c0.853,0,1.649-0.01,2.447,0.001c1.872,0.024,2.693,0.863,2.67,2.756c-0.046,3.773-0.11,7.548-0.159,11.322
			c-0.017,1.268,0.006,2.538-0.016,3.806c-0.024,1.603-0.883,2.45-2.445,2.452c-0.825,0-1.649,0-2.483,0c0,1.406,0,2.685,0,3.988
			C77.027,43.688,88.348,43.688,99.75,43.688z M65.609,5.114c0.508,0,0.907,0,1.309,0c6.931,0,13.862-0.008,20.794,0.004
			c4.09,0.007,7.044,2.299,7.923,6.293c0.282,1.276,0.143,2.642,0.25,3.961c0.021,0.261,0.279,0.709,0.447,0.718
			c1.13,0.064,2.266,0.034,3.447,0.034c0-5.063,0-9.997,0-14.964c-11.413,0-22.777,0-34.17,0
			C65.609,2.478,65.609,3.734,65.609,5.114z"/>
		<path fill-rule="evenodd" clip-rule="evenodd" fill="#87868A" d="M99.75,43.688c-11.402,0-22.723,0-34.114,0
			c0-1.304,0-2.582,0-3.988c0.834,0,1.658,0,2.483,0c1.563-0.002,2.421-0.85,2.445-2.452c0.021-1.268-0.001-2.538,0.016-3.806
			c0.049-3.774,0.113-7.549,0.159-11.322c0.023-1.894-0.798-2.732-2.67-2.756c-0.798-0.011-1.595-0.001-2.447-0.001
			c0-1.269,0-2.431,0-3.666c3.268,0,6.528,0,9.89,0c0,1.576,0,3.102,0,4.82c0.721-1.016,1.252-1.913,1.925-2.687
			c2.332-2.677,5.289-3.405,8.648-2.502c2.36,0.635,3.466,2.403,3.911,4.701c0.307,1.58,0.007,2.959-0.937,4.285
			c-1.135,1.594-2.902,2.299-4.686,1.693c-1.672-0.57-2.778-2.259-2.648-4.042c0.13-1.798,1.472-3.248,3.329-3.6
			c0.169-0.033,0.337-0.073,0.785-0.172c-0.524-0.282-0.808-0.522-1.127-0.59c-1.973-0.416-3.811-0.178-5.379,1.229
			c-2.298,2.061-3.604,4.554-3.608,7.716c-0.007,3.495-0.146,6.989-0.195,10.485c-0.008,0.51,0.076,1.058,0.271,1.526
			c0.313,0.752,0.848,1.177,1.788,1.162c3.341-0.055,6.684-0.015,10.024-0.023c4.911-0.013,8.241-3.371,8.25-8.306
			c0.002-0.68-0.036-1.363,0.023-2.039c0.021-0.233-0.164-0.625,0-0.634c1.132-0.055,2.707-0.028,3.862-0.028
			C99.75,33.771,99.75,38.726,99.75,43.688z"/>
		<path fill-rule="evenodd" clip-rule="evenodd" fill="#87868A" d="M65.609,5.114c0-1.379,0-2.636,0-3.955
			c11.393,0,22.757,0,34.17,0c0,4.968,0,9.901,0,14.964c-1.182,0-2.764,0.063-3.895,0c-0.168-0.011,0.021-0.49,0-0.751
			c-0.107-1.32,0.032-2.686-0.25-3.961c-0.879-3.994-3.833-6.286-7.923-6.293C80.78,5.105,73.849,5.114,66.918,5.114
			C66.517,5.114,66.117,5.114,65.609,5.114z"/>
	</g>
</g>
<text transform="matrix(1 0 0 1 103.7119 20.5916)"><tspan x="0" y="0" fill="#87868A" font-family="'Helvetica-NarrowCE-Regular'" font-size="9.1105">GOBIERNO DE </tspan><tspan x="0" y="10.932" fill="#87868A" font-family="'Helvetica-NarrowCE-Regular'" font-size="9.1105">LA PROVINCIA DE</tspan><tspan x="0" y="21.865" fill="#87868A" font-family="'Helvetica-NarrowCE-Regular'" font-size="9.1105">ENTRE RÍOS</tspan></text>
</svg>
